<mxfile host="Electron" agent="Mozilla/5.0 (X11; Linux x86_64) AppleWebKit/537.36 (KHTML, like Gecko) draw.io/24.7.8 Chrome/128.0.6613.36 Electron/32.0.1 Safari/537.36" version="24.7.8">
  <diagram name="Page-1" id="XGeSPNJ3Oh66vyxkz-j0">
    <mxGraphModel dx="1114" dy="875" grid="1" gridSize="10" guides="1" tooltips="1" connect="1" arrows="1" fold="1" page="1" pageScale="1" pageWidth="850" pageHeight="1100" math="0" shadow="0">
      <root>
        <mxCell id="0" />
        <mxCell id="1" parent="0" />
        <mxCell id="yRmvI4LT3zFkAknAThtk-1" value="" style="shape=image;aspect=fixed;image=data:image/png,iVBORw0KGgoAAAANSUhEUgAAAUAAAAHgCAYAAADUjLREAAAACXBIWXMAAA7EAAAOxAGVKw4bAAAgAElEQVR4nOy9a7gtR3ke+H5V3Wutvc8+R0dHR0I6HI6EEIoAWQgQAoTMRSABjo0vsY2viYfxGMcZQ8CX4HjsODODCfEtviHAsXmSH/PkSebHTObJhIFgMp54/EzG8eOxYxtfgg3G2EiApH1da3V3ffOjq7qrqqu7q9de+5y9t/qV9ll9qVvf3n6/76uqBkaMGDFixIgRI0aMGDFixIgRI0aMGDFixIgRI0aMGDFixIgRI0aMGDFixIgRI0aMGDFixIgRI0aMGDFixIgRI0aMGDFixIgRI0aMGDFixIgRI0aMGDFixIgRI0aMGDFixIgRI0aMGDFixIgRI0aMGDFixIgRI0aMGDFixIgRI0aMGDFixIgRI0aMGDFixIgRI0aMGDFixIgRI0aMGDFixIgRI0aMGDFixIgRI0aMGDFixIgRI0aMGDFixIgRI0aMGDFixIgRI0aMGDFixIgRI0aMGDFixIgRI0aMGDFixIgRI0aMOATe8wbGj7+Br3UzTh3oWjdgxIgRLt7zCIMIFwE8nwj3AHgRgHvAOM/AF1jhcwz8fwz8FgP/4Uc/Rk9e4yafWIwEOGLENcaPv4ETAHcS4eUk8EoiPEACtxNhQgIQgssnlQFmhioAVRBUARQF9hXj1xj4MBP96x/7GM2v9fGcJIwEOGLEVcR7HmEIgXMAXkyEByDwSkG4jyRuErIkOxIAiEFgaNYDmGEMYGYAILAqibDIgDwHigKfLYCfZcIH/vt/l+5eq2M8SRgJcMSII8SPv5EFATcT4eUgvJoEHiCBu4XATEiANOERMQClyU5ZfwxiBYDBIED/MQQYolxmQCkgzwh5BuQFf7YAfkRJ/ufv+diGuqYn4JhjJMARI9YITXi3k8ADVBPeHUIiqQiPtLIz6k4VAKuS6DTZuWC4j6rezyURKkgwCMyEIgfyDMgyRsb8ESXU3/7xj5/9s6tw6CcSIwGOGHEIvPeNPAHhLhJ4UBPey4XAZSEhSJbKjrQ5y5W6KyyyU02+a8AmQHZ+6hQCiiUURKkGl4xsyVgq9YVCqG9976+e/+haD/yUYCTAESMG4L1v4k0Q7iXCg0Lg1US4nyQuNvx3zGAokFIV6YFVSYS6LEIpAImMX8+Hr/wC+6t8ZTrFAgVLMJckuFwqLAuVZyJ/RzFV7//Jj9y0nhNxSjAS4IgRHXjvm/gcEV5MAq+ikvDuExLnanNW++9Y+/CURXZBc7YENxb6EEgYzFv6BAsloZiQZ4zlQmFR5CqT+Q/naf6Pfvqjz4yt9NQjudYNGDHiuOA9b2QIgQtEuF+T3atI4F4hsWkUHgggaGKr/HeFRXZhE9WH7tVSqj+dvl0JmhymYJ2brH2WlCQCElkgLwRkQkiZwAshVE7vVcA+gJ9b8RSdOowKcMTTFu/9CgYBN0Hg5dp/9yohcLeQmAlRKzxUhKfqgAWMD68DHSTY8OoNGuRhkWBnXYSsEFAFIVsWWMxzzJHlWbL45p/+xG3/85AaTytGAhzxtMF7v4JBhEu6o7FReHeJBJOa8Oy+dyXhlWRXwPW5RSCSAIE+X2Bbbseb6NVbaUxkOaEoCMt5jvkiw1zMt7PJ8mU/+/HnfjL+YE4nRgIccWrx3q9gQYTLJPCgITwhcYcQSOoILWD3vyMunICFgcNLsSQYmc4PilTLjVR+V5hmKrfecj9zSYJ5zljuZzjIM8zl/m/ns/krfv5jdz+tR46MPsARpwb/6CtZALhCAg8KbdLqPnjCKDyn/x0XOkprVN4RTDbQwlF+EsBVgfHkF6ig2lRuJ2IkEmBFSKYSaV4gz+W9+ZJ+GMCPrHJYpwWjAhxxYvG+r2QBwm3alDU+vNvIEJ7ug1cSWx2wqHx4kZHVQC+81rRBDORVQ4TheIqtF+3W9R9LnhOyHKUKnM+xJ3fn2ezgRe//1Rc/bU3hUQGOODF431exAHCHY9IKXBESgowPz1N4UEXHCIsWeHzik59tqh4FyFQY5LWQZmlpjONUJCQJQylCMpFIlhJpns6y5cH7AHz1Gpp9IjEqwBHHFu97MydUEt6rdJT2QTKjLIzCqwhPWT48PcIClRdsbcELJ9kQBRhhCg+rp2V4XCgZUJGhUoTFovQF7u3vY09uq+Xm3ss++IlX/OZqrTvZGBXgiGOD972ZEyLcQQKvMYQnBC6TBARZPrwqQqsJD6bTcRNePCAOHRalowZjyzykzHD6DHojP3pNYtL/6IxCMKQEkolEukiQFhORLfd/GMDXHq6VJxOjAhxxzfC+r64U3mu0SfugkLgkRK3wKsKDAqmS7GofnoVWAdTXV64D61aCq7bDylPOCUPucQHoDIp4ZRQFsFwyFrtL7O7vYTd5Il+e2f2yf/qJ1zztfIGjAhxx1fCPv6ac+FPUw8oeJIFLlUlbjaTQXVLsWVJ8whuAQ1ifceVH998zGTC8QVqqEJNebYwq9gpujw5LCQhBkBOJdJ4gzadJttz/XgB/Z2CrTjxGBTjiyPATX8sJUJm0ryWBB4TAJZIQglBN+slmzrtqSJlFeGuJtFp66Qh8gXba6CyHYWQuya6mvDY12LLO5QSqy4XCwc4cu/Nd7KZf2M7O7t76Kx9/w9Nqev1RAY5YG/7x13JChDt1t5TXCqEVnkA5SwrKKT2rIEVR9r8jLpxOxzZ4iJ+N/f5xqDIb3cTgtfgDG+2MLK5R9iqZTZiYjUEcOnt24c29RgUmkwTJXCLJJ+eWS/oWAO8f2JoTjVEBjlgZP/F1LKAJTwi8Vpu0l4WEniUFCEVoCXpYGdD58A9WbY1Oei57OVuOQgkOVYFDy++sM9RbsYNhGVgugeUix94Te9jNn8LOxmO/nZ/bedE//+jXHaJBJwujAhwRjZ/4OhY6Svsq0oQnBC6TgKimhQLQHGVhEZ6PDoVV7RoabWV7pc5Mfto1q8DVFd0KeUxFjgPSL6S7UFsFymUCsUzuRSbuAfA7q7TmJGIkwBGt+MmvZwHgNiK8Rki8FqXSuyw04Rmzk+B1OkZRFrCG3sKDSbChApuZD1dmP8wojpAmWw9MySYyQiB29/bWSFYwJJWQJJHkEyyW/BY8jQhwNIFHVPjJb6gIrzRpyw7IV0Sl8IC6H55lzjoTB6wQcIj1sUWXF0oYZrtBHL1i2kHkd2hz2KZd+2qEj385ZywOMuw+sYPt/IvY3vzL3ynO77zwf/rotx+iIScHowJ8GuOnSsK7rE3a12niu60yaQFUhGf64XVOHBDudtGLQ/VT8XVWxdReUCRcgZN0TXDG8g49tlUlYzWTQrUBMfpGSEBIgkwkxFKCcnE3FC4D+OzAFpxIjAT4NMJPvYUBxiU9acBrifAaErhDCAj4hGdNDRWeOCBAPG6stXz210SCVVnw01HLcptfrL38qNQRx+OP5Y0YsHZ4OJWauozvM9RnsIQQBCKCkAKSJUQmhVrygwD+xVE19ThhJMBTjJ/+JgYYN4PwgJClwiPCXUIisR8TWP3w3OndY7CKzGlBDLlE10RW15i45KGkTn2rOIw89otuf6uC7FF2loPTuCWa/QSt5Fowi6QcfiNUAs74yzES4IiThp/+ZgYYF/WMx68lgdcIwvNJYNIwaZ2Ox3WUNv4BNbZj+GF09IixzPoKjuWq1pEXcWZfV7m+7y5YzSEjG23nOO7ch/Sk1/exsyB3RznkkCCEgCAJoSRQ4P7eZpwSjEGQE4yf/BaGZJwH4eW64/FDRLibBGa1QarDkVxP7R4aWuaIjcHir18FDi63a7ff+6O1AIupVghgRGc5RHAkmktXiaQ40rVdBy72C8wPltj+0pN4Kvs8ntr69D5fv7jhX37sbad+tuhRAZ4w/My38BYI94kyaPEQCdwrCJvkPEkhH173B7gdt9XQfm9Vxc2MK2myPn9gVWAf8VrbB1jpdpvtbK1FDO1TqCsZdF6CdYT8sFYlkS6A0gwmCCIIJqAQmwx1N4BTP0XWSIDHHD/zrTwj4F4SeEh3Pr5fCJxzCI+5nBoKIR9ePAk4ZBX1UJuoq0nbzLASsUaCiMDs01NLJQPq9U3hqCKGHFtLut4iGnKxLQBkEjX9oKE6iKgkQSFALECFAJS6HyMBjrja+Jlv44SA55PAQ1rlPUACF2qTFhXhVWTH/kgL3wS00GFzNdRO9BMZh3VGhatklS8S4KBuG1aend50Lu6h1uFouQZRZXea/aHroQ/EUpyN49A7BJXjikkJMPNLY5pz0jES4DXGz/5NFmDcAcJDOlL7IBFuFr7CM8PLjMqzbmGG7RMLEaGHHlPYd/73+9viI65VUGSNSrAquK/QQzDYmsVro9C2V0m4TuME9QsL5bbMYe/EV8SuTWAQgSDKKbcU7os/kJOLMQhylfFP/haDGJd0H7zXEeEhIXCFCKK2WkvCcz/RGPcRbvY39KTvS9LPK6vImAEEGC2L6od7SHOHtmG9wYruPIc7jpYQCwOw+gUSgDxjHOwtsbe9iye3H8OT6Z9jfuNjuUzTG/7lx757u/8ATi5GBXjE+IW3MlSB8wAeIIGHdaT2+US6L54Wd+X07mWXlPq7FvFgcOnLYb2M0KzBFiIlDQ9Ie23QNE47I6tDurC0uAk6s69yrkI9W/qKa22IOR8h/2DtF/aVjxM+YQIrTgB1L4Bf62z7CcdIgEeAn/sOngG4Twg8TISHkgnuIyq7plT2pWKYjsei6pbiBSyA6IfJDQigm/wi4fi+Gk/iqp58ncy47vrSdp4HdhOSqwQPjY5j6fQLrvrCCJDf8GJDbGpts8fosXu/kZ7hgkDap6rux0iAI/rwC/81C1a4HYTXC4E3aT/ehepeM4RnTw/Fqrt31goPEHnOut4iIp4oJ8maAxiDkla2uM+IvtIZoARjj8WgQ50FAwurkGBH/KbVH7iSJyvwsoWhP+NfPP2BkNEHuCJ+/q18noBXkcAbSOD1RLhDkBZzVuCiMZ6WB6qzFR4iHqKAYn12jbQdGVulUUvyaH9gi1+rrQ1xKYed41XfV0Ov49B6gufcJ0ePrvVqkZc+wP2dPTz55ON4MvkL7F3/FxCb+FSCjef8i4/9NwMbf3IwKsBIvP9tDKVwMwFvJsLfIMKDgrAJwHyoDGx/lzYwzTtz6ZsD0O+jMxhkCtc3/CBlFVF+ZQZXaXvsw0i0KqjeXJ36q9GctbkwWwob6LFYfz3Bc24b6oHcjTz63qnkJt+mKL8JwGORrT5xGAkwAo/+bb4TwM8mAg8RMKnEnOJqElCqVF47SHdd6DR9D4WyZKoX14aBos5uTm8Sk643udXnz03ZzxRrMYcj0ncGLYZej1Xrgb3TV4DUTER1OjL7SytGAOrFAD4ysOUnBiMBduDR72EhCN9DwHuhsFV+g7ueNUVEzppiorIArk5EVd/QkRozusjqOGigmd2D+LG9enHwdyitrM0Srx5WqbznfoknXP+F4cu/ZimlEOT7MRLg0w8f+G95Uwj8Mgp8Ey8VoPKVuqcAqMnP2VZivQ+id5PrwGh8kKEvidV/bAgH9T3EQzzRJpQe2wCrbvucB4MW8Df2tSOc3q9nSLGtdQUaTd7u1nxROyhgEjNwygMh4lo34Djig2/nS1LgE8jwTTzPQPkBSGUrkZ8DM6LDrA7Ja1suAzGcYPqbEd32IRHhqu4e89ZsX/V8eL+HwsBCLGtzrfW0HhPZC348ua1Qsm5Tvu8tj3zw1PLEqT2wVfGhd/BlSfi4WvD9vJiD1HJ9hR+CxABEEElL4UOVWmsb2S0u9lgGHHc5b6H/oPaUvWL9Pg1QR9pV2kBdSdbCvs0i+8+Y7wMkaysFUvDNzOryelt6fDASoIVfeidfFsDHiwN1Fy3npcm7NnDHWiQ6H5pwiYPrCUoJQ0bNByQanQ2xya5cHqRaY0HNVT9EEEgWX3aESgua3UPriWhGozlBdU3urmAFDJA6teOCRwLU+KV38Xli/JviQN1J2Rz+hKGrIfDUax5Z7/PdHqOlldgqVHa5bNPUYGd+VF112uhmr+FkNvxpq5bZcb7tGGyVbI2KM1Qf4LlAGt8OcS+i+4rTYRDwywa28MRgJEAAv/QungjGvyr21T0l+a03dtrYZC22vrHXiJWPJqAaGqriUP7F9pYNJqE1pA2aqYchwpZNgfDDaiR46BvGehu3yWEA4FEBnlp86J0MAfx8caBej7WSH9CqzFqEoa8QWhE0ZyKSD0J32U4bV7KHHS0ZLN9eiKoi1h/Ykta/BoPKHQCfCB2jdEhdvVH7vuPwNxCg5wT08OK3PPyBU9lj5GlPgFLibxZz/i5eLOCP3Dg8DPl1O5/sh47h0kOwyOBKbKg1JlE3OQWLi31waVj0ljDQjD+EEuyqZiVXQqRfsOJkGqh8I96W9rRXTr5GQfZ71S2UwedB6o7IVp0oPK0J8Fd+gO/hJX6R5wv0zre3EjqIpEUUDnvGIiOluuC2qd778nU/YLFpvbauQCj1l+36Eg4rt6+oltfYsEJ6NjeE6ZqOwVZzvb5HstKz/cNQrE7ll+KetgT4y9/PM87xz/K95dZ6o70Gw+wTW/3FI/4pqbivM8uwFsSRQk+ZEYfg9wpcKwlG1u+8O1Yhp6Ny8NrlR75UqnPY0pGcnIL09aPT2SH6aUuARPiRfK+4V6jsqGpYOWX8A74iXa7JnGstompbpK6N2G1HNNmo2T4ckgRtVVa5KQ5DZANN//WTpmsOk5bU5pgoeGNURHgqAyFPSwL8lb/HLy4O+PuRrbGT8xr8h7a5dVVQO30OVavtLQpsjCs7kiMrpwJfHRJsq3+ll0hkexxzeK11BK6UrwJNpdpcqG8Rvuctjzw6W6E1xxpPOwL85R9kwRl+vthfTtbr97PvukhCOZRlyIPMnvbqhgUl/LRNjWcd+xEEDapiG06zvgzrqZ+8v5XV9JAmHQHR1tYA1b4/ywfoR4IZvMlQz1+hJccaTzsCFITvyPeKB4jza92UEoEbNe5+H/5UNHPwMCKxC6rMpqqzbG/aQeV3oL3b9+plDk3bHE8xECuck+gg0IA6QknqGaF9nD4z+GlFgB9+N58r5vweXizX7F7p7bwSRstTbPdH665vOKgt/yrFEce3ZNAJN8TM/tYwn65R4cXC9gsCmpxifZMrtIcaC2uuo2Fv+5lO54iQpxUBQuHt+V5+s6B1DXPrp6pe2DcoNTeF620pJwLO3IQ97Wivn6v5AAcJyKiH0eo65PTbYfjfQnbqjX3QYy9XpDm8avG9BbWAsQLRRlZfHjKVUaZRAZ4ufPiH+GIx5+9Dvq6ob9sTcogQRmfWCK01gAQPW0Y1ObN+GFczR+1+ki3HR0A5R3udx+hOn3yjSTg68YB0dnKPoAa1KzLZ4PlgB5B+OBoMAHzXWx5+9NzAmo81njYEiBzfl+9m5wW13TlDtvtdPNYQt+1VYAOfEC+5TxrxZfkk1UwyaPSC1aKQmdtIY1Xkqz52iFMT45p9fVW6geaziVIPejkMKH+ts+W4syW0JmPwhFHcs8aarzmeFgT44R/ic/lcfReKLvXXduHrx617W1cZA2DxqevzGkCyrk3TaFm0IqkYpzV+3MzTWrhLVoOVGFANR/M7Rjc8het18HqNiExG4eW1NmVVn2PrrU7Vt4HrL2BZYAaIT9WIkKcFAULhO4v9/AI15ofvIxVb/VBge9fyesBdEdaOXPUvVwQWH6qx8vU8YMGynAft8KZ7Q4PG+BGPyMRd9RJHi8gBSrN6PwV8x1H1WPmJjOFLIIiAn9jcQ6drRMipJ8AP/31Oirn6XuR54KL2+fBcJ7z7e4Qyw/KRBQMW8QU4m+LUwrq6swyMVIcEB5pn3U7f3RxD/P5fS91DzeEVsU5zuJHE2hAVjGk8DuVNQiCQ8qmhsnru+6Y3fKi/cScEp54AwXhjvlfcRrYZxyaKGSI3Q3ptvr/Q8tGAVpq9AFjtYY8gLG93s5gA0QxRNMRVAJIj/JUhK63RLgpuPRxc30QcjEqjAVlX8Qn2vhg62qVNYOKQCVxd19tZ5ReHVHGcceoJUM35bbzMYUl4AOaG8QnGXz96kmtFWMRFYFXCjAC5f7VhHZm3swX6ujgme0jBBVjYKzvom2zXktFtHJyuI1+UQjN5htZnkeDQOkpTWIBYeHmNJ5oFk3rxwBYdW5xqAvzw3+fL+UHxRtL9/hisVRX0c2Dfhn0K6Cg9621ouPcHpe/cS7aJOLxVbMpwt3TDetDY+6/RxuiASiScstZkDtvpB+ax/XZR1R6iXTFNrNQfGU+gADdUYCkQ9LeCTwVONQFyjm8s5nnim79h9Bpc62pWBHjAh8eHkkHARB2U06tv4IO5WlCnv1VRbTik/y6q/KHpVzRZV6nHWwyWS1Sqv7B/oXrhnZpAyKklwA/+IKOYq29A0TfXn+33Oz5wvl1jFIP/F/ng13TVo3qCgQjfHG1rcF/9FvEdSdCBo9OSff4OXe8a8pG72Jv9METuKU+nSP0PgTQJthXC973lkQ+cCu44FQcRQprgtuKguF+IDjOSg1uvIcIk00rP1LLslThIIVbl2GbpQB+hlbuTOBtmqfkN/LV2YA+VMSRV97lZ+at6hyBBe3XtZnFL9sr0NQSINhUIAHwzo7g0oOZji1NLgJzxVxaLXBxVJ9SjQbix4cczYMYGs69A7nqSgzjSadbG1b99+X3zvS+H7bdsS2ml6bv2DoFw8H3ihMhWNHEHpw+otF4iHNouf7WyNAiAsBSg1wpmMCCA0/GluFNLgGqh3gAVnvQgrAKvJbof6ub93W26mSFhw3xtdRvMfd/vhmQnV7XWaQ57qSlEg811c2zhNgcQ4SKo+Mbyw5ltjVJ1O49ibr6+PEemBm2yJZTKr1MBOlfoVMwMcyoJ8J++W82KhXqViCaUk4S4aGs8+QVDG1U5XQ9WrHntUWtH6qbp6xJmmw+xRxF6+4KPNdVp7T6IIWL0JzqIup8O6Rv0N7UWFcWWoXy17Oz3AQIMjArw2IJxf76fnxMSjYt4/Mivmw7cFP2k5hBfq0nc0Gz9IJuGus1bn8JsEmrkYpvk+uHUH1SE4babfXYWtnebBU0AtkkcMkX9cbht91Vj+xrM6KggyRDxT/Xx1AqQOnyAAMAv/sZHHj3x3wo+lQSolup+lYejv8EH/liYwU24t19XIztIibw/xGu2GMIL6bU2+jP7mK0/5+iadbo07bahJEGfCDtI0BoT3QliRLOI57NrMxobeYaihQg7leCAeszAgHJqfNFiAhvWZwB8ASiuxNdwPHHiGTwEtVQvJDY3cSQGJl8PYhRdd7pY3QT0+fR6SmLnJ9imsnx/uy6X3W19FbmXop4K1f14PenLpkmwemAb2q4unfT46r7TZkiwanzPzWHx5SASXPXlG1tfrBo06lfoqRDa+gKyeeEwGOoeAJ8a2vTjhFNJgFyou1bisvbn5hqinyy69vU9DH2mrJulhf7YXnRWGq2wO3iHTzNbdZL+v1kvWamMsUoOadlH4NegRwT1EgMjOAdXGzpIrZWHVjBXY5I0rntLu6ok1UgQASIJAQkoCmfmkhsJfMeAlh9LnDoC/NC7FyL7grqjEa27JgovhLi7vb9DSNv+w+T0lrjeZucJjVIphRKDEsLGOYGzFwXO3iCwcVZgslme+MW+wpOfz/H4n2XYf6KAoTHA9cM5ao9LgrN9b+UeQ5FVaML6Vyd0pCe59TRUYxv0jTOUqCx0+QfZT7AKGbYQrr2rOtQ2D4Ex4wVBkACxDMwI4xUOfs6A1h5LnDoCJBY3cV6cE/a1C1z0a8uHKzxN1R3d7o1bhRL9fa65yo3trEmJEuDMBYkbnpngwjMlbnimxIVnJjh3o8Bsk1q7izCAIgce+2yOP/nNA3zqP83xxJ/ntTnHNcnVx21dLSaAKs1XqjmLBIN5UK83rnvUpRh4t7QQmr95Ves3WF8bsfnrvkA22wVZM8IICCWBNgKsM5/4ztCnjgBZ4XaVKSFFyH8B9xm5qrAfop5b33ue6yLqPnr2XRzSY6GbPGAUW+k4sF4SzGRT4PwtEhevSFx8VoKLVxJcuEVidsYmOvNIq/LX8hXVhZZO9kQIXLqS4JYrZ/HKrz2Lz382x2/92x388f+9hyIHiK2H0Ryw9t0xGMRUnYf6VJF13FoxRpnEFeP2XJbYdB56yLBxVxyBGuzNpw+tMoOFACkBUjJQJFnXFjcPrO3Y4dQRIArcxjmDpoF91s3FzU3NnYF8qyNS9RnS8Or0u300lRv7Gayfpg/NVZJc3tMC2DwvcOFyghtvTXDjlZLszl0USJw7xSI6588/Dn/ZyLyiPEQWkCRx6VkJnvGd1+NlX30Wv/mRbfzBr+6iyAnCPJCVzrNm80HJb+yQoKms1oXNK23vs9s1wMxdlaQ8sLccrH4VH2GHGnTqacjD2gQWLEGFBHcUyMCFAS07ljh1BKgydTuU+6BUGKoA1yoTY8gvpNFccrP9b/5SKArrk5wpTyaEczcKXLyiie7WBBcvJzhzXUjVFXAJbw0gAKQAVgATpJC48SaJh7/tAu56YAu/+uHH8aU/y0GkiRCk7TdNYLqRxKQju6hIsiZBrQUb6qhFCdppnfQd+YYQlNeO0DvCqd7euCY16Bdp+waFMApQzwmoZPVxJ4cI6/vj/De84Wfwr/6Pdw5o3PHC6SPAgp8dk65TAdqJjtpWru6rJvm5Gg2emcoR28u86Qbh/C2G6CRuvJLg+lskZpshr1RhLa+J7LpgiBAKUAKJkLj1ORO85Ycv4T/+2yfxn/6XJ1EoowaFNtOM9CMYs7qmPbNmCreOz3KAhXSgg+Cht/gmDqPSAnlNDU5t5F7TwfX07bZNYN0PULCEqs6zVVB9CjbBSADkA1p1rHDqCBAFX6m6Q4QwhNTWQn4Rd6Cn/Bpmq0dwhvT8dRAwO2ubsBI33prguhslktRvU48JezVhrolQADOEUjizIfHAV53H+UsSv/qhx5EvCFIwqpGqJBx7znBbTYKm6DpgUiU0dRhGdkAAACAASURBVDZuhhYTgRsLTQz1wXXcW74ytFupRXA8etpll0+irEAIAQEJYmm5+4KYMHgkwOMELvi23gHr1h3VqQSjZOJhEboza2ozZq1LegBJxtYFiRueVSq6G29NcPFZElvXC9QR8C5Vdw0Jz4fzxDMgC5BSmKUJXvCSLWx8H+Ejv/B5LLe59E8JggIgiAAWDW4DXNJwtZ42jB1ffkT7nNPV8RYdqgYHVO+QoGnG0EK6yhf6y3CiVoBQBMjWUyAATADMB7TkWOFUEeAH371Issfym4mo8l30IeoBOApT2HP61LSkB37pMbLMDDkBzj9DR2E12d3wzLYorCG70Ew4x4j0HARkimAAOaaJwO13buKvv/Mm/Ouf+EvkewIMAUEMCAFBcEjQFnCa6ryyjX/QOncx5HYIX190ersJHUkc311HnmAhHSRYRYK1D1BwUp5bFM1sZVkChBmA7YjajyVOFQFC4QLnvCUogvz0XXS0Iq/vrqxN2/KPkW4C1z9T4OKzEtxwReLGKxLnbxaYTPv8dYdty7WE3TbrKRUMUIEpgGddmeF133UDPvJzj6MoZLnPKDgCqmHt1YvPEF3TLDYJK3+haz+jkwT95nZhaPqBxfo+vGgSbGlTaQKjVNkoO0Ob0SC2S8HJzyebQ0504xso6LLKGVIgWrUdgcWi0ecvKvefu1ngtpekuOGKwMUrEmcvCEjnqugAwcq+usrDs0Leo0boInltJACywGwicMfzt/DKb1/g1z78JKDKk0TCmtGDzMd8ynyO7w+AGyW2aw6ZC31mbv3q7D2zqwRJTBOGJD2kSq1mghG6MzQkqAh1hnYqmkTWeCxxqgiQFV/mnEHmkvSRINdmRGfSI/QBPuf+BPd99RTd/rrDIORSPy7w/ABtbRMASYUzM8IL7r8Oj31mH3/wsUWZk6okAASYVEmCuly7D2FdF3u/XpN6ThHpipm5CpD6pbWYjMOwAhHiEEESoRUgCQFBUvsA9cb2RpxoDjld02EVuAzFpZRvoP2uMPqoFevkIkv9AYzZWQKQ6b8cbp+7dcAOehytwX94dLRLAkIytjYkXvqm63Hm5gKFylCoAooLKFZgKO07VZoFQi8SDix5a94NEWpVNaFCIL2/iUIbh2BgHn+uwtg6SPcDFIIghITgBFTIvpwnmkNOdON9qFw9q1wKvbHa74j1aqIWtnSCFWaJMTu71soD8BWg24bjBZ+gvWsmgUlKuHBuigfech0KXqIocihNgmxI0PsPzq9fV5gcy+rZ2RokNTt5xzbqS9iHFd9ZQ4iQSHeGFqIkQCSgIkV95NTwpGJUgMcHXOBKeXksE6cMqfbnPcqGBcjPEOXG2atplkY6Ro8NPOohgBJgc5bgtju2cPsrJbJiiULlUKyqP7bUoE1+zXIjQF2KKuCv7Di9DoEGmLH3yhB663CSa3M4mgSp9KkSEYQsu8GIPHEOM3DmRgI8NlB8ue7nar3hw/0dGpsOR0MtuVsenPI/hdnW1boEIf0Sq2OuFvw22m0xkWFAJsDW5gT3PHQWnC6QFxmUKpVgPdt0GTzyRjyX/xJKdUfslt1Y9t5djVPTESTpIUITtHB8d+1ZwoXEJKP61+fPUBFClkEQowCFSlF2hWnNMxLgccAHfmgHrHDFdstE3yVs52lBVFFtt3DILGYwMWZbV5twTFvalOdxMY/tc+a1SRJmE4mLN2zi2S+TWOYL5EWufYEFlG0Ga59gRYTkXguOcgC3pYmIlkRwpE1SR4pKHLRffSGpVoCQkJyCVOhAqvUTHQU+NQRIKp1wwTe5N5G+xMyo+kZ0oDPWcShecJUMa/IjwZhuXm0CbKvvuJnGHewhgCQVOHtmii979TkgXSIvllVAhI0ZXH1wCTBX1/XqWVfc+7aIW7sXIHEwJETbn6QjrhLOtEqwwxEJLkQVCJE6EpwAVSAkoMhHAjwmUHSRC95sfYsS0FQUrv0bKwai4BQWzphuADIN7jpimPd/8IY+GZCEjWmKCxc2cOtLBbLcIkFVB0QA4xN0fYHu9GE+wfUE0Ab64kJFdCYNlN1Z3SrtsdpkZyOpgyGy7AojOQVyGQh+jArweEHhMmcMCk2ECqC+Q1oe/KE+GDtvZ073Qau+ZAbG9EznfCRHAL9biDkXqz5BR4lQ7NWCAJKEsLUxwXNfPqt8gYXK6m4xjgrUf44qbEHjXljTy2EF0rQ/2u4X1VpHbFus5KZp9pRY0ukK0+abHQnwWIBzXOGi7gPYuGWrfmGGBO2HPz5abBVolRWb3l5jbJwVje1HC/8mts8FrnJb+uC3LZBCCmzOJrjhwiYuvVCVBFjkbt9Ao/6qiLCB/zJAtUyA/sBSZDPX8t6IK6TtNR4sKqZI791XRoEBIQRIlJ2hKdejbsIFjgR4HKAKvgzTM1+jSYL+VltllL+dtz35K30PSVdQpJy66uqjzew9TuRn4LOL92RLwnSS4uyZGW57iQQnyzoizAWYi5LyGiZwZPAnwo3hSKlYMgym7Tj/gfStesxPMBB1X0AzLZbdF7As2Ct6JMDjAM75Vv+1GHcPtHR7GJjPKaClkNr8LdeuvgL0cdzMXhttfjhL/xAgk1IFnrtugpvuLgkwV5nuHK1KIqwCIK7abS6F6kUPCXalj8AqvsRSosYVM6R8nc5EgqVWgKIws8KMCvDYggu+vf5ovd4WTOhvsJVcyEEeKmAoaWnTisxauX51O0G3wX5rkLd8LRGq3ycqAknCdJpiczbFLXfnWgXmunN04XSONv6/2gsYvpbBKxIgncHNXyda3DWH9g3C6guYSEgkkGoS+ETmGAQ5XjAECHRf7NZ9bCUha9uqBNX3YPFV7AQdgm/+29vM8rUmwTZYnjBBmKYlAU5mhJteoFWg9gWyPTLE9Afk2OvaZxa76fzbb9CY3DUSbKs1HvluE0n5CQIpJSSlSHgC5CYQUv4RYA57JMBrjQ/8wEFid4K279v+27wZnHC32bKyP3rYWis1y9i4pgToPwV9ius4IHCBBSFJJDY3ppimCZ7x/AxIlmU0uPIFBqLB9h/Zv138YNVLLh00yM9udTSvcYRDz/PxtIWJ7SR2roi2yARaAQoIkUDyBJSlaI4EJuCEzwd4KggQii5yzsGPobe8rFvRfn/QijGPsN+IYYIgx41kVmnP1TyGpskuEoHpJMV0kkIkOW58/qI2g03naD1DDLNnBAfeA+0uEHKXLHbpOwNdQ9GCSq0RILFUr5PL3Oi+3Oxx/nXssjtDS2kIcILmEQA44QrwRLN3BUW3q4yRyOZVHWrI1YPH/a4hh3vIQwbxxtnut/fxgDEZgfITlgpQuluJUnU8ggiQsvyj3imUDgH/hJV9PydpgukkhWKFm563xOO/n6FQKQouIFlCsQKRgoSA+VCS88EkW1i1eQXQ9iU5PTVW5C3iU7j9W9MbWURMcEkQ3nar1GpT+M4nb6XRMUJvlwlBSG0GZwlkNoFCOT0+3DwjAV5rcMG3c6Eg0kg26WDFQ43HdIjT3u771nQQZEsg/O2Oqw3dJmZNciW5sVLgooAqFJRS9a8ygQXWk4KWEcMkTTCZTCAmKZCkaJmYcc0oHfZpmmA6SUBgyLTAxbvm+NLvTaBkASUUhGkvKdRzOJsbITRpqlnk8tvD6HpXUf3TRYJWsrZ0dRGWOWy+3uSwlU2K3ku6kdapvkrZMIttz0KiO0ObQEgxRa4kWORWJgZAZ1qP9wTgdBBgzrcHv4SptzV2dZCcO536oVvWuk4ETM9cTfnn3f6sAC6AooAqiproigJFoaBUgcInPU18StUzrphnU0iJNE0xmUwxm00wnc5A0/TqjPUjQiIlJmkKQUBeFLjpeXN88ZMbUCqF4lR3hFZgFgCxpf6sc9JCEYO0fx8J9qariZgsxmQg8ElMmwTdNlcv3Q6itevyy5dJOS2+TCQklZFg5AlosgS75Hsu4miPLU4JAeLZXVQS9AOu5h7pa0lzmdx1ozuSKZBOjoIAyfsz6q4AVA4ucnCeo8gLFHmOPC/KmVQ00RXKIzylSVEvF0Vh/ZWECGYIITHbmOHM5hkslxvY2CiwqWaQMwaSI7aSqAyETCcJEimR5TlECpx91gH2PzOpO0WzBJNWrXbwozpvrcWXaCW2oY4Wr0r2N7SbrmYWaq4m9/BNYq89hPqt3lCPrsFt75KS9JhgCUF1IIQnZKcGgJEArzW44DvWOZXQardz29MRVoHTMwIk1hk8MJfSqLusJLsih7IJz5BXXv7mFqHZBJcbcsxzFEWZryTEelhZVR3094ufBKbTGa6//jzOX3ceSimcYSDZIHhfZl8v9DTuUkhIKcBKAQK4/tlz7PzpmTIaLBJrjkChH39NhLFXu5MIvXJ6SdNtf12MTVZdpExV+fWr1a9cb7c/Bh/0VVoqUGcXSRkMEVKUgZA8hXD8gBWhjgR4LfHo9+8j/wLf3upuYlSRvlhSWx/5taefnV1zoEBlKBZ7UHkOZZGbKhQKVao1Q3x5kWuCy5Flmf7Ly8ipJjpmtgWCh1J5ULWPQMRQijGfH+Av/2qOvb193PyMm0EkcEYISCEAcXTBESKClOVH0wEGK4UzNy4hNhdQ2bQ03aEg2FV+9SG2mJINcAuJBMhvEAKRiNZ0Xl2tU715ZTrWSNMGdzQilR2iSwKUkHkCkU1QfnDKUZ4jAV5LEMsLXGQ3izYCXOFmHDSNOIDq02Atdbtz0pUoAyDrU4Cscmw/8RTyPK+UXG6UXJYjy7Nq2RBdYam6cpSE5xi3Vmqyax6g2SyEDgwz46ntbWR5AVD5AG1KCZodMQFqoq2+1gbgulsPsP1HZ6xvhrT1B/RNRHspQDCxCi9aCer6bbXWQJikyTitOURpfj54dbjBFLLWZWJGhCSQ8xSymCBXsspPIDCPPsBriwJ3qCWLUBcYAKvZs23pW1/K7O1jZ7vWJE6W9U6EQGClsFgu8YUvfBFZllUmrBkTy6ppihuHdylomlFQhwwRXLFog9yuaAwc7O/jLz73OUxnU0wmKdI0LbvJHAFIlApQ6o9Cm2M7c/MCT3wyBytvotRQIKRBVl1+NmuV7bRtDUQPCYaUXaiQQAJrhlNin8672mX7HP10DJmWI0KSVCKhFEkxwyKfgCYLcNWBkkYCvJbgHHehYIgeF1O/V8UuNDZhD7yXuR0G2djqfSIGgMGqNHe/+MSTyJYLCBKafMmact12jLuNJGLrpq7b2zwN7lbbkDTKmbnetre3i89//nFsbmwimWSgIyLA0g8okEihm1gyweb1GSCzutuOo/pgLXuBA1hJ+sxjS7zZUVpXW4XKtTcGbjjPldedoN5kAsC+pmtVsU759Uuw7MlEkEmCRKZI1AxiOYWa7IFQ6PvlZCvAEz8SROXqrw2bx68freZvm1kSSt9zP697KizWEVxmYLEsx8JW3VaY9VcBuDEMlhvnziUIBqovCtR/2mSu/mrSY69sZoUvfPFx7O7to8iL0kY+ItSeSWMLMkgozG6YN+cHhHci2guMS2KRn53N12wEW7D1MpybORZU/zVfaW15mipXyNIPKBMBmZRjguViAwR7glRsff3r/smJ5ZET23ADznFXzL3ReG933AuH41P2FBZbe7j6XbcPUFnBCyGkJkG9TZVEpDRhKYe8bBLjBtG1/fll2BFi+8tsrBSKPMNjjz2OPFdHSoDNaa3K9c0bF+U0+eaD84bAKyKEvjnc/GF/aBhGaYems4e3iWHS2fNXRtzFEe1wa/HTx7C5K1OTiVbWqUSCFEk2A6nEagzNcIJHg5x4ExiK7yIRILgYHNrUbSGwYLmuIbxeBci6A3OhCbCcuy3LcrCUkLIcrWH+bNHqHAHXBO1ahNawrM4Xh2UQW0RIYHzxS49jmd2GaaFAR3DX+Ua51SrMzi/xRPBDSaE8HTeF5+9b9dYhb6n6fq/Vkk4HSfDitddim8UGva9efZ8kEwIJQKZJOTOMmkFkM6jJgSkjAWMTwLyvyOOIE02Aj37fwSR7XN3mvLTW4btbS1H+Q+ViY62fw+SqEzNDD02TEsvlUpOQLKc4r0iwzum3oiIvq9n2aIHqzHgy2clnli2TmxdzPLW9ja2t2bouUQTK1kzPWbPCaBVo+wLLI+rx8xlov2ovgzQcgP4Ou41UdSRoCXN01xGDAGm2Zrfs9yQV1ZC4RCZIiinEYgOYPFUmYBIAbwH4UmRLjhVONAGSElc4LzZlpJgaQmr96VYzXw2JbJwVzdfyqmCuRmZUQ/n0lOZZnlWqUIgyqkeWndbwdxpfni636ymzya7Oyt6vphtmPPnkk7h0840Y3s+oH/U8f80mJ7MClOS1ae75OZtob1vDYu26hK3FNP1tbWUGL49f1NDbyAuUtJYNlOovERCJQJKkSIoUyXIDORIwcp3n5EaCTzQBco7nc6YgjmRIWSQ6HYst6wTMzqxy57aAuerobCogEqXqAyHLMkgpNQEKSwVSwAdVm7qt00LZJKnrZwCqAPIFIVsQ8oVAUQBEjOkWY3Ymx872U1AKkGtU6nabVGVy20dSrqdbS6i92gfozAptvYjK08Ko58nqaKzzfogxnWEtdJyAjlvDbxX3pG8tYADSSXlNZSohFylkPgMVU0AstHsEF4eXejxwsgkw43ugItTEwAeu8oe35gndbR2vbS+dTAiT2RoZgFmP+FBV9WSpwLJzdAYpBEgICO2tL9PVZOgfix8hZgaKjLDcF5jvSix2JZZ7Eos9iWxfIF9IKGU5tGAUl8LsugzPvvcA991nyl8zA1aBGB1kqUxKAhNjcjbDcrf5sfTa/O1mkGBrLVOxObFgIC3bKz3oITXyk0X5BQMFBG5bvwiZ6plhUolEJEjUFDLbQD7dMS24ObLWY4cTTYAq5xcOfYyiH73ORNbducKzPNkkCLkm9QdUXWAqBUgE4lLtlaavwDJbQilVKkBR+wLL6KXtjCcUObDc0yS3UxLdYjfBcl+iWEgwW6a08SuCIKgcDWK1DIySdJY7Ev/lPxLUN2NtwtepiVl3+vbmKtG/ybTAAvY45poE7fbCOhf6ZJoK0HmhY1SYedH0leVV3WhmV/UD8rgZw5sJQKI7RMtUIpETpPkUcrEFmn4BXI4LHgnwWoALvvsoppxrvT3JTuFv80vwlk0XfWDt3wJhTX5KKUtk1FFfM8NvlueauARUASwPBBY7Aos9ieWuxHIvwXIvRbGQIJYgqhUjUWlOS/3R7Ir8DIFS/Xzbx26+wyFYQmUFlguF2dZaD79xDsoXAINNZIEBOfH7AJbtc9ByLcuhZoYIOxoRq8IoklQjy6b+JHFlm1XfP0hAOiUUhUQ6TZHmU0wWW1iqDSjKAeZbhlZ5XHBiCfDRdy22ssfz223FwdAXb4gia0vfWs6w26vyM1nZ1v05TK6mqlK2m7EkJU1eggTmewq/++/nyPZTcDYphzclEyQyLWf8ELKcBp3sqLHQf7XSI/IJENW5Iu1hN8dtFCCjABjIsiOQfwCUUtXQP3MCqinxiCCnBdxe4EPboW+IQ7lufaax1g9hurYmGaoG/UKseymdCizmjGSSID1IkRYbSJbnkE13AWBUgFcbpOguztTEVoC9vBdyF7ZlCpIiDyPXUHl8BH0ANfkV5uHX9dlkRURYHgBPfq78fsYknSJJJkjlRJNf+SeEIT+h84sqcAKHBMtKyDgcUZOuaVf5nwCTKodNKUJxFATIjHoqLwXTGkPDpQlsRX9DPd271F8PvPnxglPqVy/CqEBJBCLSO83w/QIxGa17NpkQpCTIiUSSTpAup0jn12MxfQwF1EiAVxuc8z2cMcQMMFe2N25BgVtwiAJsm/UlaBK332VrnwlGk19p/pmitVrRf0SEYknlmE6Zll0a5ARSr5fqL4Hw1F9FfqjJD17gxOlXSPXDThUJEhgEiDD3HP4EcDWHoXMOjGBjQKam/5/OUvkBV1CEDRXWQZRGGVvF+3Hgap0Gnp9V/H328gDVWapAQp4TkkmCZDlBmm0iUWeh6EsnlgBP7FA4lfELdZhPw7qZV7Fueje1KIfWnGFVBKzZB8isAyA6Auo0ker/iFBkVKo9mUKKtFJ9pfIzy1L/lvsF6RmBRQJBWiFS/SftdSFBJMvgC7nLQpvSMjmKyRBKAsw0AZrpoXScuzLRnYlcvfw2HVUmfd+gcOpI4oPcRZ+LyEvXNqQuto7QrsZhDSmfgMms9CcnkzIanKoZJssLANPNX//qXxzY2OOBE60AhS3rzXboL3R168GhtZU/g4qrjR7X9NCdoNeI+rsd2uQjqvvDafUHAPlS6FmTkwD5SYvcbL+frQBrUjGqIOTWchWgOQHlPMxJMoQ1Yk8AV1OA1V2BSN8LALM7+gXEDcJBYN05Pkfk+wfdTNOE5ZTsSGvX6Yu0TtFGMYmayTmq7SVkos3gtPz+S7qcIJ1fBzGdni/4YIYTOBzuRCrA979znnCu7gk/R+YJDOxcyfzqyzTcdJptUbB5K4HrYXCmD5z70Bgz1VKAVCu9mvwshRcgQ0ECBFkFRSqSRL0uSABwidP+FVJgMl2/AmSlsFyWBGhPhur/hkCoXxDN/pBewva9VmEtGf3lSIVnJlgwijDqtrHlXmzSmPQETGbliKJkmiBBgjSfYVKcnxDRhZimHTecSAIkptvVki+EZ1jvJqRY10eZ7rAOq1o52lporQqwGgZX9oGzq62gH/AiEy7BeURnm6519Fe4JGiTn0eCMGQHoYlXB1L0/iSVSKeym5FWOQVFgUW2xDLPq4lfmyNcyFmrCcJvS9s172KfruMZEKmIgSHE2KxrNKMBIJ2hNoOTCSa8gdn8GRCYnkg/4IkkQOS4jzMV/MREc4419wbsp7S6A8fwx7StdHaW1zoRgh4GV0175R+z9dwWS1H56poKz/jwajVHoT/YJFdvB0y02Z50wV2fbSaQbTN3HwJFnmO5WCLLcn3IVP2S/euRon2v9HNy7VKIUUrxDLVCeivPIEUIdGZw3gkt6YSkMiKcCkxmKVJMMF2ex3XFC+6PbvsxwokkQLXkl4YDEo4z0ENMgMT1G64nYMnWkhUEWRMPsDURgmJrrj322k9kKUCj9ITn82uattUyalKrzVy7X6BRexbt2LYbCGcvTFdz7neeAIVsmWGxXCLLMosYyCEWVdSMUfsym6jJ097W4veLOQ6XeePSD4C5Y6M41CbBnnq6zOLpmTIYks4SpEmKiZpBLmZ/722v/43ZsNZfe5xIAuSc7xfBC2h3abBvDTdN97V3FVSfX7u9jGYaQvkGnW6sWQGqshuM/SW3kPmuMrLMXF/luZ2cgwTXCIpYaQzx+f0FrXTXXZwGuOCQ50IpLJYLTYC5o2Lsq6/y+hid2v3qA2xihbOaGEKEsYhUbIDzfnFU4WHMY5/8/QKTVKvARJQjQ5AizTZuE8vJd8RUe5xw4gjw/e+cTzjne5whcE5wzV6x+3pR9Rv07QUUZf+N5OXpuesYQLpBkGuMvbPpBF3UJnA1iYEhRN2uYumauS6p+WrP8u0ZNddQgvZTp4nPUoAuSQI33DIDhP90+73iBh5/kePgYIHlcomiKOrAB2C1CVC5O3oF1TFYJNhoAleH1otAuoZytARxbJlWQfEg56dfFcaoQa+gWgVKpEmKVE0hFpMf+p6Hf/NEqcATR4CCxV1qqbZaP4OJGNPVXMmOlDSknLhaAWB2RoDWNQ8gNAEqHQQB9LAz69dqaZF5Zq4IqMA2Px5cAvHVna8CySKYsgGEGy/PrDuu7fEcRoTFMsPBfI75YqldAOSQoCHCYmEUICqV1FafvY/sjYGm2XSvq2ok9c1Th/ZXVYaRaSOFZG/ZbKeDUYGATAXSaYKUUiTZ7AotJ2+NbOGxwIkjQM50AGRQy32i4ua6f/GjOMrrpcVt+2qs+2NISqlqKiz72x51M7jyB6rMIzxYZKeXoRWfebQdUrOWq78YFYhSLdzy7I2OJ36FlwIrLOYLzOdzLBZLAOYyuuRLQDnBAwLEXKVfVYMGEKuqDFFTve6TpZ1+SPltaVclQqddemGmVWAylUikxISnkPPpD33v6/7gCKa7OBqcOAJUS/XlNISwqp7IfjR4mL4L1tFJeOEGztb6OUyUU0CpAlx+kbz5ASNdGytAFU1lZ6s1X9XZ9ho5j4CnAmEe5qYNaMq54ZkzbJxp6wJjP3Uc2NaCIsf+wRwH8wWWWWapz2bSfCHgmO7UntZuVdvGmjC7rYhosrLS+GfA3DGNogaqR18NdjYt4rzICSFJ7YhwijTbuEzz5Ke+95FPDmjctcOJIsBfeMceVMYPHrobWYA/o9BnrTnr4SFX6x0HzCjyQn/+Uo+ACXy1DcwocgDKN3Vd0qvNpprkjA+teoKqB8mWFSY9HIVon45nf9k5QMR8Ec5X6+0olkvs7x9gvlggz/PGQ06agAlAvi9B1Rhn++Eni7zj7grHZzhEiUWmC0VfW281T4T3toHqRSAiyNdSptk82yIIAaQzick0wQQpkuX0O8Vi8jU9rTkWOFEEKCm9xJm6XUi08UscIm/Gtp40w1FnnJ1dXxcYKEaR59VHv4Uon57GJy0B5MuwT89WerWJq8t3njKzZD9FhE4JZT1tz3nRWR0A6YJdMSPQkBqsMN+fY//gAAfzeTX0r+riYitSImT7STWJa3XssMhd/4SiqoEjd9vcShQBFhuo2kJ5Os5KvNq0Xma9zeogQZkCs00qZznfSJDKBBM1EXKZfvCdr//0pYjWXFOcKAJEjgfUQgnhfJd5KKjZRw5oJbd2zluNDdfZCZqVQqZHP7CeXLOc/BQNUzhfwlF+jrILGEeWnqvkFLWedCu/lcScoZtu3cDFS+nAa2ZI0C7JKjvLsLe3j/2DUgFWKla3wTbaVQEU88SLaFP40BurA/yDsQS3yi3QUnbwEDoZsr2AXhJsqX96hpAk5dT5kw2JlCTSbHITzZNfetfDnz3WHHOsG+dDLfnLqW24l4d1K6cLowAAIABJREFUERe1rvSj4Wfk9c4Ew6oeAmfGwNpOftsMzhawAh6oSdDwgO2JBxo2VuPQGzZZkyXM6j2vvR6gIR9E7/enZvM5dvf3cTCfI89yV5S6TcdiR6Icx1xO7W5IzT42uwa3Nn0Vh6i3gSpssCqM2T2UZK3LPjgrARvnSlM4mQqkU4kUEsky/QqxTH/w+x/+q4ElXj2cKALkXD3Y2YWEgotXD1XAxW6DOxJkY40TIVSfwlSln882a4UmMmMO54va7AMJ67F37T47guuYw9URuembqLcxgHM3pXjui7YG3mlG/fm0pP+KHHu7+9jfP8D+wbwOEFT9+lzVttg2Q//qoI9DfJ0KiIKnoP2o9drQsPLQtF47QmequRLXhrYhBF3lyQSYnYHuGyiQpgITJEgW6XtElr77Bx7+YmQjri5ODAE++neX5znjezq7v3Bw8VCIK0en8m4M90NhZeRlY40KUOlJEJit7wEDjq/LdIw2JnBlylomrecJ6zAHm/uqSiuw8+8rvubGFT8AZRfqjvDJ53Ps7u1h7+AAi8VCk5ilbL1SDp5Iykle7c+CNoi8jf7amxdyf5Yl1aONqh5DfeXVmQ9JnOQsDVaE9mnpyhbYMd0kpBNAJITJpsQkEUhZCLlI3iuz5Eff/fB2ZCOuHk4MAaKgB4tFkQhZ64MuBJ7J9v2DEflAB7rNlFNhrUcC2hHgavr3ysSrVVBJgLb/r1Y+tmoKM5+Z7j2uzfYhP+sFZ3D7C89ERn9DJZh6rbqLHHs7e9jdKxVgUajKrPdhjmn/i5NKATpdffzDKhm0R73VLwu2krtFeS8UvWKnC1Gv09loqHKrMvndvaw6ViHYriyBHRvnUPoDE0K6KTBJBVIWEAv5DymT7/2hh/ePFeccq8Z0QS3Uw1SUKqoyjg4TCY7EOqiq6tclzAfR14OiyCs/H9hXHXanX0K+0MQIr4+fjRa7qVNFBLYxgOkZgdd+6zNAg3x/bZXUyOcH2Nndw97+Pg4ODmpSMcdsWk/ljcIKWDw1cTqA2/1YHHKAS6RtJOTmtjbGXNrOMrm5zXpJubWH1rlRfoPfh7Q3ljCt/UIAZ64DZMKQSTn0M02BlAC5FO8WS/nP/rvXZ8dm6qwTQYC/8I45OFOPRA8h86O8LQ9pb2mH7fbi1ZtMyuFD60KR59UX4ezBHzUR1kqwyJrEV/3b+YChNOjaHgI2xi47RP+677gZW+cFhgU/elBk2NvZw97ePvb295EXBUq1a7W7UkLl8t4XJaCS+kNPZL8EdKKAglyJ3Iagt0xXRZrr6HaTNushRvWva6j0YejkQ2uHkMCZ84CUDCHLOQRLEmQkGb6N5vR7P/pa9d0/+jBf8xnpTwQBJkhuU0u+MzwBagRalGLvTUChwR4xrOiXzJUqGjaErxvlR4Dsj32b6puRTZUJpwNwM8BRtzW4reOwTfXmE0iv+LobcNsLNgDKBx9TRy3I9g+ws7uL3f197B+Us68b8qstV5fMtv/KfPBJ1L7RSu2556BX6HRzipUoojC70qj0JdHZk0u4JGgXaG0LyFiyf4co1xjo8oQoSTCxSHAyA9JUISV1gZZ4lBb49X/wOn7gx97A14yHrjkDx4Bzfr1aFCJJQzvRaaZ0ltuTjtCvJJsl1r9+/lk1CmQ9csJ0gjYfRK9LrU0hYw4WmdlgP8WhdjilBB+x5hat/5jxkr9+Afc+dB6g7DCH1qwtW2J3Zxe7u/vY29tDnuc11RFrIUrwOx/tfG6qP9xUK8ByPkOdtUrZfSfEXTFzxam5KSofoDtxdpepNxsSbE5k5FVK3S8wAuK+DWIfVkTAsSRBxt5TQJEDlCqIREAVCiLPoQp5v1qI/wsZPvVjr+b/nST+DSX4Dz/6UdrvaMVacSIIUC3VG4hdU6qTRigiTc8+oLwPnTf+QO7yb4zZOmeCBqrPQFZfgyPUH0MCYJu3xdI8/H1t1UrDWdNLweOv+8nd/9U34L43nNfKb43OWC6w2NvD9s4u9vbLzs9GvdSivH7oTRPnu4TFU1NsTK1hcMb8tX/tugyxNKR/i1SMSddLgrZas36rA2xaFParyVxX89nqZhjElKmXrY8E2yGuRlV9ZNjFq+ZQNAkuDxiLfQJrdSgSQOUAKxasxB1K0ds5w9s5x5P/8NX8awz8NhN+T5H6pJLZp3ij2P3x/+1MR4NWw7EnwEffkSXFU8VrfNPRuSX8B5PLa9yZJrSpJU1VX7TJaG+vfze2hH51Hp4IWX8IXCnWX4OzqaqpRPPMV33dbSg/CUDVkrXDylqWL1PgVd9yI573irMAcgBr9PuBoRZz7GzvYHdvHzu7eygKpZVS3YZQ+5/4zBRSJtr8tb5bAo/2LB9gtVVfcAoSkIUhhBFM18OOQWVGwWU3CGyunr1RL1eb3O2NJvYRt/eyCCbV7+DpJpBOGfNdhTwDhGCICYOhABZgVf6pgs4rxW9WBb9ZqUKzZD5XO9lnvv+ln/vkgnY+qc7Of+YXP/7CtfSuPvYESBAvL+bLi52fk225P9dlbLpGYWhvy11iXska6xwFoqxvAZuvwTm2kOFEPRa4yOpPFUG/9yuatGM2VJNf3bfQVRx1NYzzN0/w+rfeiGfcOsX6yQ9AnmFve6eM/O7t4WA+r9rKBIugvHE3DHzpz6b6y3cS9iQQdTcX6vHpsUW0ph532VWPtRKzU7H367xNPYLtU1TdieCQEtsb/eUek7fa3ate0eTVljRCApvXMbJFgfmeACutXoUCpACYwExQBUPlCkWWg8rRTjPk+Z2Fyu5UyfLNLJc7AP7HnlZF4dgToFqov4GsAK0QPe0jvxhydG7NFhOwPbN7S6xzHLAqch39rb8FUr7Uy/qYTUgC5VRYeRkE8D8I4FEbjOph5ymqj8PQTDIh3PP683jpm65HOgWADP1PytCDzDHf2cH2zi5298q+f8y1yWfI3WL76m/vixLL7Sk2ZvZ3Trz/PFnve/qoQRbspQ/D744X0tyVrq6OxU3feSZ7yMukafrp7PYb1iIEnIhuWyLrMyTYmlSnSadAMlUosnKSjnxJ+iWuRzFJBhGDZNmVpsiBxZ4CFzmYCyjOntfRkkE41gT4/ndkQu2oN5N/JSlC3YXMYD8Jo0cB2PDuKKstnY2wsM7vAeemE7RiTYTGDrFmhNZD5IqMwQWqq+3MmE+G1Azr+a9yV11NNgXuesVZvOiR63DuQoJS8a0z2qvBCtneHra3d7C7u4fd3T0sl0tNftx4Zv0H7rE/niCRSfn9E3vma6Bx0V0tF1B2VUJrX4wq6khH1UmuZHbFRzaRGHQRSkwbjJHrZrEJ3hChX6hlSPcRYaO+9jYTgCQFkpSBM4yiKMmwWAJFASgwJAGcmPuVwUqVBIj8ro6jHoRjTYCS5L35QXa77Ov+0kJEQbE2kIA4cNu0V+BW5ddXKsD1MGCR5+XH0FnVs8F4M8Ao/dH0bNl8yVftY8t0rKQfOynlVODSnRt47n1buONFZzDdNNHsIzB5AYAViv1dbD+1jZ3d3arjs3kHcdv10HyyPCA88ekZZmk9BrgxC47TPcQigi5BH1qJJUInbcAktRcDZdubAu+nqDaY93czi82+/k52muUZBFH1NZIGjk9KQG4wsIHaaimAg21GnpkNCqwKMOd3fPcjv5584KOvPPSb91gToFqor+WsAKXmTA0jjwbfBbL3caJjFnUmDtxS5O5brwLMq28Bq2o6fFX1C2Q9RK5QCsu5ZSiy+WUo3T1CVEoEYChMNyRuuDzDpedu4PKdG7h0xwzTDeO/NIrvCIhPl18c7GH7qR3s7Oxid3cPOzs7junLHptXZI7yhfX5P0whkFafAHU+9oSS+Cr6868HWdc8QEANVA9zxIWtlFZvqc3d7G4yHBRtonrlNXvG+EQcVoTO4cbUF6EGg80UpVuw7vzNesx7AYX8nEByCcBnelrQi2NLgO9/ew61V3wNofQNOIg1g30EMsTlH+7bcp8HAqCwcXZN7Acgz7JqHLAJhJg/Q37mm8HLeen7q9ShYigw0glw7uIEN9yygYuXZ7jxWeXf9TelSFL/6StQkt7wcxENLslv56ltbO/sYGdvD09t7yAvipr8jP6z1YUxkVBO+vDYH82QysT7+Hup/kDhwIcvvswKOYTVBuvFFuO8c9irr2wrKzc3Obui7OY6U6tC8ytoY7uYY+4jQStNcFPldjIWTgHmHAy+E6eZAKUUdy/my+cLsZr6Wy0HGiTZLfoCzhp9JetAgt5G5Rfh1jURQqYJ0HSHMYrQRIbNDDFCJNg6dxZ/7b5n4MZL53DjpbO44ZZNXHjGBs5dmGAyE4HjM4TH1t8RgwsU+/vY2d4ugx67e3hqe7v81ocT9PCeFivYAwb+6pMpkE8gphKyiv5afQAr7Ueu2utCr3Kz7pJOUgikG0qCdlEtux33S6Spat/nrtFryrELq/sPRpvEbSTYcR7qx8f4tU3QLwejuAvAv+uoNQrHlgDVQv0tXhRCJNBXp0fvBXbbU0StjlinUDdEQpis8Yup2XJZKUAIiTNnr8fmmTM4s7WFra2z2Dp7FltbW5jNZpCyrfsNo1Z1V5HsGs3Ike/tYWd7F7u7hvx2sFwsdeQalg9T1eYu18QHZiznwF/9wRRJklTkVw9/I8ftZ7+H2i6ju932kbk3m0sNLimQtSFA382KhpKhZxpXVfuStk8N6jTtKs06ZssFYaZc663HI8HW8xAkwfreLKPAOQC1lkjwsSTAD75TJflT+bdQw8/UVIOHNYN7I8GDK6iz2ZhsEFYeyxxAtsxw3fUX8cxbn4N0Muk4Bp/k4C1fY6gM2e4ednZ2sae7ujy1vV3O86fJz/nAPRu+q1iwVIAMfPZ3E6CYQE702F+r/59RfQRUitLv/tx9mW3G1OktRegTkLOgbfbGvItokoHd7dA29Xub1aKeGqI10iy22+cWYK+X18QpuksNWiTY1QYnv2VFMSuUzptKAR4ax3IyBGJ6fbGfX5LBiTR7VGB86qj9h4WJsc7O+LN5HA6T2Rnc9ty7MJmmKLsJKZRma46yT14GYKl/c9Q+vCP24w1BscRyewfb2zsO+S2XGUh/4MlAB7mbn/3UO/afAh7/4ykSKfXYX+lMB2amy2pc8YobdX3GOm55o1gGtLvSe6NRMJ3NkcFl9zR0lB9uQ6N5fW31MgSTBhvUEVhqaWdrMn+H8wI0JrC6822P/FpHRXE4lgqwmBf/Fec5KNi6pvkRXtGp+xReJ1YlCm6s1RMhrOedc+lZl0BrnnDg6oHB2QKLnT3s7u3h4OAAe/sH2N7ZwXKZlddRAc1uPXW0u95XkuKf/r+TMvKrgx9kT39FoaeO9P9NVdZQcGWT+9Glfvx0Q8qFew93qsKONji7Ytrqma2NfSBvhzmXXO/qUoNA+6QKZj9Z1gqXQ+fKIEh+CcB5AE/2HEUnjp0C/NC7+KKaF18pSHUYarWzwhkAtXZh0zVUynaYtEnP2uSsu8Csp5Gyc2zgcQaDF3McbO9gd28P88UC+wfzSvkxyrHNyurHqKz+jqoiw5oYH/80YfsvJ5DSCnxUA//s4Ect9oZK/2r0XG9C68/Z2JN+aFsiVVZn82KVZVdSp6763m6Y3hH5u5OaUJcyfkDBrO7oKb0Xx04BcsZvzffzze7n+6gN16o13QrSkQrdxLbOYXAnFwRe7GO+N8diWWCZFdje2cUTTzxZRrWZdT9G5ai7alifcslPqXKWkU/9P2bSgwSChPb/uZ8AQEVghhTbWtjcs7IiNJli1ZaNiPJ7RrH1tpcAt7tWpFoLJnMKs88iR/dTbC23SlC6bxgFFDIwqbsA/GZ3qd04VgT4wXfxpNjJ/w6potKmzsul8aZZ4fUZhaGRj9Clc7fNtswH0Z+eRLi/vYONzS1Qchaz685jysBmriA2nsDOwZ/gi098GmAFEpZWs4ijIkGLFJVi/OGvS6hFgklqdXo2CtCXSo0hcJb520IErXRYPdQ96s5eHiL+TfqefBQgl04iCQRLogMlFhHG11HPKdRZvmUgNWMgNfOWQRAFRgZwcehI8LEiQKHwdYvd7IoQKo6Dqn54toOkma9rXr9wNUPvVq++QMHrngvwpGHz3NlygQsQKxAEpqnAM266ARcv3oCd3XvwR3/4+/j0p34frApIITSheSRmjXX+1G8BT342xXRiTXnl5GmM+2hx9nloPKjt187uGWO6vPh3TnU3WZxOqG/f1juNvN9DqL1GOo/kgz6+DiJsb78+EQ2iNVTWc9DkKU1L9BjfL1hBITcK8FA4NgT4gb/LKObFOznLQRI9BGXD9K/qv0mHKbuuq2RdIWpub5gW0CYwUSjT0wsEfYcXmgwJiZA4f26Gl7zkJbjzrrvx+//5t/Gnf/y7EEQQ0iJCoOwaw4zP/SHjz39ngmliurpYU16BXD+Zx6FVO3o2Be8b7klrPcB2qhDvUiN9z2s3kuSiAiYeETpFRxJv+C62XjSNfHqatT5xofMS6mOpHh1lOr5nWEdXmGMTBEkkHsr28vul+YhOlAAbSigt6dhb8b+xEVtOa+GM2dYqeU85CIBgQOQgypGIAue3JnjpS1+G173pG3D+4i2Yz+dYLpfIsgx5niPPc/zlf8nxR79B9Uwvts+vYruA4rPrjWjaKvuqBDFRE5to9J+12EjSrKOvIRHNaHkRUE8aO2Gnj7xRkBYJfV0zKuIzB6Cvre7FxSjAXNz2tkf+z0N9ZuxYEOAH38miOFDvUQcZKNCidipimCE61ZROLcm6EJT/w3L0Ji9ngw4VvPbQdQtCj9UxQUWEBYhyTGSBZ9xwHV7z0Jtw70tfA8WkSTDH5/5kif/8iQJge4qrFp9fVXhz0d/kKrQw/VSKJIp8LGk15HTbZOhxeLDqmLJjSLCPCHuOo/Pu8hpcpetj58ZLgYCCShVIBRTyTWa+0lFCL44FAUrCm7Od/OWi7xOKQa6ozU43USAkH0Dwuq6bkwheN5irRXpWA5x67SCS/duV/yqAAEgGZAEhMmykjOfd9Ty87o3fgM2z1+MzfzjH734iA7gmO2eWZ4uouqoIbqDAX/XjTyNr8lDLDRSoKVB2PzxJaJG7P6V/b7kUqQY7XhJ9TTXNbQ+QmHvQlGgmhe0o1tINJQEKcEGlAlyDGXzNCfBD7+KkmKv/oThYop744JCovKc+OTYTcvVvlTFcXMtaW5k2SALTjbaSrwa59Pgyrzoh90ATIYkcU5njpgvn8NDDX4NzZ+6AUk2m8qOG4evFjX9D/N9QV+SRTVebPZKKS+9vtGHfH/rIqN5XT+3QGbZu1LsKEVabYspv3ecX7L1pQuRrrgETwARSVA5sIgWFDDhkIOSaE6AgfOfyqexuScWhyqlvAbK2WI9DcEbQuM8ddqdpM7trxZVOCUnSdXMfNbrkwZDtV6u9GhKAVEhljvNbKb797a/DQ9/4wmpYnI1ynkP75dPiajdiqY30WvJ0nUJ3MzfSxpZPVcPalLmV0GExO9oNa79PNu5qr3BsIcJeJdtFso2NhsibHyQof8hRgKREObs5uIwE43BdYa5pFPiXf4Bvy3bU+3iRhT8Y7ltqZlvnFbOXzfu+/UsY5ZKnGzpv3jaR34j7V1umZ8jzbUYf0Jpgn8guvWSvRxzj1YAAQIwkL7C1IfFV3/YSEAn8xv/6p06fQO0Zr5YdpWf9dlBCA8Frbx7G5uVu5rLexTFXuKJsJ4zb09KqywnpKuu0bJflRKab93p/J+eW1bbHQe8L9hm0NYovWKqGmGAJnMkrSAlwXlbKyMB8QhXgh97FQi350eUTy3PikOqv+faAIxG82ctQX7UWfxwHF1u3tBVg2hSeCTrE7kcNv+19x+Lcqd62qwgCkACpLLA1S/DGt9yDL3v1Jf1JgHrYnD9BQtnygJuj4gQ3UFGLrxafn31dW1VQ4JwSOtLXCcy/NpX1D9trKs5gWxqiMiTtOhBI3laUn7D10Mlf4fpM+GJWbycmIDfXNQejuPO7Hv73K/PYNSNAKfDW5VP5G1Eso56prke1niI95OSnain0umr93sfghjQPwiSdnfH3HTOfW4WAz6kTV5EMCUBCmCQKZzcTfMW3fxkuXtmAKuxZsFX5YFSjRgwR2oax1/rQIVD4qQ2+aOGnizgnDTbwgwNNW6adCP9/9t41WJflLA973pn5Lmvtvc/Z5yIJdA5HINsgBxIKrJJwkeBQBOdHyiaulBM7DinHJOUf+Ulh4rJjCLlUbFIVp6hK4hQGQUIlqYAgDgFsDEYJd5DkYHEJkYQsjs51772u321mut/86NvbPd3zzbfW2nttlXl3rf3N9PR1pvvp5337ljDOTH5D1ij+zYQ3U4mm5jsfzdXDOY9icMSHFd2DAsyEeAWGeh6EF0dSH5VbAcDv+yv8frXW/01/mQx85Npb7sWNtktOrh0HkA2afY3aOylzspQHGpZ3q4xt/EDgvZYUKry/l26yE8mFY8iKev38HBisARYz4Plnj/Cn/vJXoJozlFbRAVGeDQr+J/+8WyEblJQrGWQul4FgVLipxXPIlmzFNdX7uMc9ThH6J99fZKcYfxJvsTPZn7VRBxI2QDCBuAIUmXXhZk1wxay+dH/KeXniAPh9385frFv86PZRe1xRONSJBxeF+4Ls9+aMEfZt7p3sXJAxLCnkq6wCP0EGlU13X/rS75T8ptW75L/U002gChWhaoCjRYWXXnoGH/jTL6Hveyitwq4x/k+sH0ZpWCQ2V+wV73HE8JUWZ2/kRYPi9aSE0YPnnD7xz6cQz8hp3yc8gEEGYCXRX5EHQDcSfJ2pME8UAL/v2/nd3OHvbx90L1Pf5pvKNchB+VmO4SQuI1jIEp05+2BUlndR6LJH7JDXlvEyx+77QFEyPgmI+yQ1ReS+uIxvzC4q0qsrNA3h7vEM7/+XX8Y73ruEUr1lggqa3aFQAQRT84g/+F3GLZkVRT+xyKJk/KWPI2DIqp8jrX+MEV6RDUYpZvMkAtnLg0AwjTIXdKyayZiitMNqEK2suQMdrrM9/hMDwO/7dn4FPX5m+6D/Ur3dgtJhNCflTnpUsljkR7Y4In+HythsgmyCiZ+ju6XXPJWJXUXG7AljzG5oPx0OHgH5PKdgPlau1F8urTJdoFmF5bzGM3cW+BP/5ivgSkEpBW2ZoGSBw6GQhA8SEJ0+NkCvfB58GxUgUaoqAVasof+QXXoPAMPROArRGimp7jEQDbzkiWPxWRLlSLGM/ZaVHnpgglbmGxoGePWR4CcCgN//H/FXoMdHNg/U+9R6C7/i43G0eymUXB5CtFJTYu665Jjo88s7yNROCSaPS9KWnBZkCvCMqb45pChVaWnoL1X9XD7TtMJt1RDuHM3w8iv38RXf8JxRhZUS6rA9K3nABIPaG38WTpPIJi1zGj2atGtqQKqc+W/s7ZTyMjkLY2wwXXc3ktgh+aKRZ4P2CdNBsFboNj3WJx3WDzuorbb4bP9pAvd2b0BzQtyXfsu/8tOFRMblsc4D/IG/ytAaf1q3+IHtQ3VfrbYwU15sQxgjExmJmuIUk1TkJ9OwprRt720KWOUaL9udYHKZm5KR68g+lTVVfSVI5exCOeaY4zy5eA8p3xiPEtd1hfmswt3jBb7y696Ff/pPLrB+q0dV1VCVQsUVmKssCyRxP7otfuRg/WarQqY1O5ladTL+s1+v4Fc+9+H2KQI5p8HzBBx5z+l2OUVorF9jmDOsO4Vuo9FtFPotQ+00+q2G7sxfsFgQtNI2KQWGeqWh5hjAOpPCqDw2Bvj9387PaIXvUVv86Obt/r5abVChfIbFjXChMTteDm0PwpwpnvNUcXwvwMdNg0u9TNqKpD1MA6wBVgD35k+7v878stnOKg43Ja00X1Pzn3EnQtVUOF42uP/MMb76X3sOmlSwBSaDIkjtgZRJg/LuxpliPwW/AxmldNP8F5nhBEZY9JbJU+SUDRRU5alF8v6y1YDR73psTlus3u6wftBh86DH5mGHzcMW29Mddhc7dJsOrJVngawcq1fQ6OYM/d4JWRnIjTLAv/ttDK3wPoC/Wff4S2rNX7A768G7HeLJzvnX5nnCCGEY5RKldkapQ/ys9J3Tju9KUtl5gEUDzeNWg4Gwh1DyN3CzHYW7dswpUekBcdZuXQFVDdQNDjv38xA0GHGvKyxmNe4eL/CFX/QMvuQDl/jML/eoqwqqrlHrGlwZdbiKVGAJ3HEliBpryTQ2yEqiMmQ9ZSLb9/kL/scZWxJFUpZ9zC1yGmWDnI+zkB/3mlx9Up1Cu1JoLxW6tUa/Veg3GrrX6HcdtFZQuofWPTQ0lDkNDmBAK3tEQmV2h7YjwZ/Iv4Gy3AgAfu9f4WVd4y/qFt8Mha/hjqrdRqNfdYBqMWWlx9RebbQyXlGTzAYbVVlz93lpZsBsPtaIr6IellqRY29sGZwGNAN2ojBrtpOG3YoJd/bGcCWFwT43nw6xLkUAEaGuatR1jdmsQd00qJrGFLhuDizTNYQI1azC8XKGe3eWeO/7j/HmJ8/RnijUSkFVCjXXqBDKymSYIEXgV/gOEVHOmQCCN+9CwXusXJMPmY9/SnmHfiVjG/RVMqjDLi54yaCjdxpTYUEg5knxmYQZ7brH7sIAYLfS6NY9VKt83dx1a2jdodcdFHdg0lDcocMWgBkcYa2BSl9rIORGAJB7fEB3+O+6FaBaDb1T4L4DcQcQJ1UlX4kiP7m6aN32+kulEE++INmsHQRRaTWYH+87ED3foMb9C4CzqiprA3YsV0Ykf0prs3KCdXTAELIAmICfqOCO/VVVhaZpMJvNMJ/PMJ/NMZvPUM9mwGwOVE9oqXldYzGvcfd4iePjOd739XN8/EdaKFVD1bV/H4YtSKuPZIPDzmjYKUqWR2GX4oL/aEdpzscbVTlBrvbOsErATDqPAlYStsgGXeakkwPYiA3GZoLoccZRK43tRY/duWV+K4V+06NvDeMDGFu+mqk2AAAgAElEQVS9QtetoblHzy163kKhQ08tOmyxq1fm5EClUTd+U4QvK5R2VG4KAF9ZP2zt2dsKrHsQqwl0TVxeBdwmZe768RwePEy3CAei52LNN7x9udG7S3SbrQUxbY+RDAwvOk5Sa2hlV0pobaaKKDXw48FRazOVhFO2GPZaIRCoItR1jcV8juPjOzg6OsJyucBiscByscB8oUDzOdDMr/QGDxIi1E2N4+Uc9+4c4e4LF3jpKyu88Rs9atVA1YYFBsarAapG3jojd64FEIOB/x0Fq4zqWwDN6Fp0vqPx71Nf94QVmux0ieJ15XMdc1kjV53G5qwzzO9Cob3o0e86qL5Fp3fQuodCj4f6syClUXGNjjfosEZPW7TYoqs30PMdat2YKTJgMHcAXW0y9I0AoO71y2rboaYeboQIQJ5FMUS3FVe/KVAw9sxHvUeTOVSugqGuLEt/FkguVvk7XVTf4/z8AkppC4ABwJQ28+H8X6/Qq95PEel7C4B+mohjd0X9piAW4hmoqkc4Wi7x7P1n8cy9Z3B8fIzjfoml0qgXGpgv98R1faG6xnIxw52jBZqa8MpX13j4ex3UpofWjZ8cXcGwQK8C+4O3RSOOGnUobrEEue8b6aLJ85IFIxd1xn9xZDfHBqeo2LSHDe4F1/ybked/qE5jfdIa5neh0F526HYterVDr3fo1Aad3uKyeohTeh0N1yAGOqzRVpfoqzVU1QINUFUNiI/sZGjADIT0zxdKNyo3BID8HmhttjUvSLn6x2rwqFhNohTX/ub62LmIr3QuvcdxGhxrjc12izfefMuyNhWxQGnbcxtFyAGNePOI2D4lyxHTnbQhhxagtcblaoXVeo2To1O88PwLeO6556C0xjGzqWSPGwRrwmxW43hpGOh2d4Ev+eMVfvcf9OibHo1u4uVxtun4rdL2aCsUUbIJkjXM7fOLWCkoeQ9kKx9PDrDczaEgWAjnwTXVdwPL8UitWgN+2zOF3VmPbtWha3fo1Bad2qDVa7R6hS2fY1U9hKp3aOsNFK+hqg101ZnvRQRCDcDMFdTajez3YPRXOhvkRqbB6F6/ss9okX8au061gJWiOKSe3Zxw9s6lZVTgm01ZK41eaXOo+NkZLldrbLYb7HY7c3iQU3lTELS5ogjYYhku/M8DpHNz+7W5Mm42G3zutc/h9199Faen51itN+h3LdC1N1T6khDqpsLRco47Rwuw1rj/buDuu5WYHK3E0YqB9eZ2BC+zPfHnZRhOetu/pVUSfzEDIlb7nYreAPmh489Zyo+Ic/C4oFXlyyY6x16A33mP9rJFu9ug7dfY9ZdYq1Os1ENc6LdwwW9gXT2AOrpEP9+ia86gqxZ+FoPvtOzUpt51aBoa3fzf/8afyr2NUbkhG6B6uQiARTUY4YGldpzqrxntYUwdvRLMTNJv04GcNNUy9OYnQefimCrs7XoMgtaMvm/R1HWYmkL5WONmmmOBOfXK2v2iyHLASRHbPD09xa5t8UUvfxGIKtyxo8ZmhPjxCNU1FvMGR8s5qgpQSuGV9wO//eMdlJpBN2JeIAwIRkvgQDFQsLssfB//aWN2WMCWIdMr3yYRUebDhI/sRmDDvpeAV+2jciTplaqui5qTvGUYZhQmcdeasT7tsDu34HfRom23aHvL+PQFNvoEGz7Flk6wrU6g6w6L2R1QV5sxBSRqvPtu0H7Joxlo7eaKdpmMjcu1a+N//S2rSm/55Sm6Qb4acdnHgYhWBKkcCB8qo5ED6XCc66/yO8FMjjwrxtZnmExV11BKoe061HVtztKtXLNMkNBN4yAkDWr/t/PefQ/m4ucoKgeCRMBmvcZnf/+zqOsaTVPjqK5BR+LQ55uWqsJ81uBoMcesadB1Gxw9W+OZl3ts3zCbJTR+z0ANroItkOFAXnwL/+mcSheSGmVeTtLDoXN+XfVxCBm/6OBlMCoi4nZ7+MV4B3+XASef/Fj/Pd63D70J/8zA5rzD7qLH7iIGv52+wEadYcMnWOEhNtUDdPUFmHqAKzArUN0AqAGxY5QzWfjvp7SfC6i5bzTaCoYuTpZrA2BF9Az3+v7VtLypBpUg+wAue0/J5UHMMseApogJVx4EuaKwsfkpawAmOwLatgq661BX4SBx36ismNvE0OPV4ylElcy8Qkpar7sWjIHY2M22mw0++/uvYrlcomkazGedHRl+DEJGDV7MZ1jOG1yuFKgCvuDLCZ98rbej24YF1p5JANFAyNhbkIxvStUdY0ypH1GG4D9hpXCYWkg/Ym4Ouh0I5lhkYKYeVzMeRJ9XZI4poO4ue2zPejvaa2x+DvzW+hQrfoA1HmBTP0Bfr+ENEczQSqFuAKIGGg4AOWTETd2y05uM6y0BIJjfrTtdNe6ljNSfvWpk6IaLAZgxxJOCyjch4fGwYSZrJsIpaTCO7o7m7HBhDaUZShn9gIhQUYW6rtG2LZRSqKs6HBQu7UC2tsd9RUTfnM9ilsc+80BJI0JFjMvLc7z22usGBGctqmZWiOH6UtU1FvMZFou5YaNa4/g5wvKFFup84e2AfmVIdgPTIfAgzbF8EeP66wQgLGk+Q6CL2FYpzsEzWcnzaEfYwwb3phGcu1Zhe96hvVTYnXfodju0SoCffoBLehOb5iF0tRt0yFop1AsGURP6a5Ge3/VbK7smmMHoK0bfAOhxgFwbAHWnX+Fem5gOqdNRK5I3SfM6gK2N4i8jP4I8GijUiGlK6rD2TFOBpwoZBminu3hXOym5rmq0nQHByjFB+9z5k6wwLh0AYUuKPFwl/7aj0lWFSjPefOsNvPDii1gu5pirHqhnV4h0v1BVYT6fYTGfgQBorUBU4YU/1OHNX++t3cjYkHxDAoP8DIYcqrk3Ip+J75oFg/DiBqA18DtWoKHfASMciStOMgXCDAjuiag4UuzS0IzNWWeWuF306DYt2n6DnVpho8+x4oe4pLewmT2EpjYTtwE2kEZVzWD2PJC2B8PUzbeTAKgazd3BeHZtAOSeX2HFoAZXRKahJ2OXKVOzsagmkL3pkunED5XxdcApjZgAsX5Cs2H6RAQWKzPqyjDBXilUVBkmaDyiskO87j40aq9VgBWgFaD6CqojqK6Caivo3lzr3lxrRdB9BdYEN7AKAFQxqkajWSosn+nxzDs7LI4M43r11Vfx3P1nMes60GMCQFQVZk2N+axBVRFUpwBiPPOSxhv/uIXiBTQrMDfwgyDJQEjEwKKXnyJefBd3sDF7S7EvnWdNyGqoSQIHPt8bLgOCMl8llThVh4XfzUWH3aVb39ui67do9RpbfY41P8IlvYVt8xBcdYMyu9drQE2B6hlIy2zI76SDHZAZTBpXmQpzEwzwPSTXSF6VMQgQiIJPiU/4yZLKCVHlNVieXqwoYfOh6gaYL/fB9SCCUWEOk55lSCKzOoMs82vbFtu2tyBGBsS6CrqvDZB1tf0zbrqrLaDVgK4QRpTt/huV/TWJxSDq2pGt0W6+3SlrvA6FO+/Y4sX3bsH8Js4vvhhHyzlquxrjxoUIdV1h1jRo6gptqwGYctz9whbb13s/ehjmAwL+W5C7ztTHtENMaN3gakRNDL8iVIKSA/zJMEhKno9tfyXH6YJ2nKrE4gzFCexSatl9q7G76NGtemP363YW/C6w5hOs6AF2s0fQVR8iz6XB2gyENDOgbQDqkoKyr2ee0ZN2KvBBcn0GqPTLEX85CGFyHjj6FAfnp5TMnqiywCkr/BWAfXZEqAcHoucklHivT7F0LWQuHC0tgfAXfuQCejvDfLbAbNZg1szRNDM0dWNGjKva2gsrUFWhsbu7UEMxAEYqNAmSFC/zY9tq2W48YCZma2wfzvFP3z7Gm/e3eO7Om3jhuWdRKwU0jxEAZ2bkmVnDTHdl3HupxepzPTQraAx3i3YIQSh9CQeICVPcp85eUfV1DCmLQwVwGuBZLh9pnNENx95zoJqLh2Hsfmur+u5atGqLnV5hw2dY0UOj9ta9UXVJzB4IvYmJlhlah4EQpk48FyPB0GClRGemnjwD5J5fEaUoI9Ak8GCvH4zyJh7RKktZ2ANgWQAvgGEpT6mfxZ3xfF5FDPjZWfBSnHpLCKxNzzCfL7CYLzGbzTFrZgEAq8baCS0AUoUqBT0SoGpfTgBDkW7U2oJdzYFgrRW0qtGd1/j4P9zgqz6gMNcKhMejBldVhaau0dS1t/cBhDsvdkDVedbggNqhjPmE8YeMB7wLH/MQgJPLOArrjQfegeGcPJduDgTtf6NAOAA1136HAQoDyD4eArDbKuxWPbqVQrfpjOqrLPvDIwt+uxCACURypyGZKTsQMteoaAaNTVI422FZoGStgfq2AFDxK+4s0YNJUhRghG8fGPG1MMenxYWIOHs9rMuM5d1DVoFMY4qslN+0wL0z9/4NObMbRmpCRTPMmrnZrWU2twywQV03MfujChXFaq8DO8n+fC6F6jv8buxyCr8dfVVBWZa5Ounx8K0tju8sr/edimIYsAFAtxu0zRcByxda6BMFdqtCfH6TqjiMNoDjlPl9LtKBON1VqMlTWGEJCEdYqMWZIgi6ah6DqiAyaf0uxMOasTnv0K0V2lWPrm3R6Q12fIkNTrGpH0E1AsTYFoRF5NCRk1YKVGlQ1ZipV7LwcPXLDISwtoAIXmZyOCrXAsC/9RceNPoBfwHNqv3fcJIKnF4fAKuHoq/0v4dRAvtYZwp9RswAyAF5miB+BxfWcQ13a5Isc1M9UFcNZk0TmN9Msj8DfhXVYd4gcuwPgPgF5HsgC/zpFulOraxQ2SknRJX9I7z6qTVefuUZXKHLFCLrRswgiCrUdYWmsetG3eth4OjFHc4fquTsYLHUapTkSRQasjeJRe7T+Ogc6UPmcIU0zbHGJFjXgA1mwhbV2NGgoj4JICyRxHajLPgpdJsWndpip9fY8hk21Qna+UWM3P7lcByhBDitwdCgeg5oQrrQwK0GMftcKteNPVkGqLf8Ivc4poW5lx+7VJEitb/kl2XlGYko82hfc8qquqVcXrF9ks3/jU+CBtt1rWYLLCDuma15DkSA6sx2VXVjNittmgZNXaN2AEhW/SXDzCT4OTAcjhhTYA721v0EBux6Y9jRuQrE2voxAR6+1kIzUO+zZex5FyEnSRyVsQPWdhoQI9ibls91ONXSbiQYYpL/IcFNKkTav1k1OZsrCk/I+43xygORJIcl1RMoDGqkDta5AF4RCUBUcpGJTB5cMAY2Fz26jUK36tF3LTq9xY5X2NAZtrMTcNUP85QyQA4pG8zVYN2jauag1tkBZWmdicVOhTEj+k8aAPUrpMgP5l0JLwrqxpUkAs58hkrP9uX9IHJpweDobmkvwKuL37MvM4fLM0AQ+tbu2Fw50KtRVY13q6paqL6VmCKTqsEidtkuBgVjoT2xvbcsyz8g1GBcnihre8PEF7unFWb8VRTUd9nqF3d7cNX5NcHgAHhBPXXXSbkFymSzLR330TwBcmNMckzFTcEryWI2XHGQZAxUkwhlp9tulAG/tUK/M+yv1WtscY5tfQo12wUgJ8eAGWTX/ptnoQB+IM0NhNQMohkYrciV+86GBTqbLhGeLADyjl8mLti5Cswu22tm/NGg1k1oKdcAm8nMcYrYRrW8c81MZeJVdi8/HgyCxHxIdTAM0IJfXQfgc8zPgSAhtf8hAKC5SVhzeg8E8HBzON1WU5ZlVc5Ljc2Ftq9oCqiJuGVhi4AY5kSa1TCIOguqgNndDrxzDFB7wN77qdLOdY/fYvYn+pUtYHR+3vjrOEwtFv79ZWm+IAPbiw79RqFbd+gc+8MltnQWVF+JWemvi8wCH8FtigI7EqzhB8t8BbcMEHbKlVYAawD1EwbAnl+RDSGl/FcWcixCMJtJGbq6RnUYwA09y17M/R6mAk/IATOU0n4dcCwUGigBqqv8IEclgS8FP8cCLXv06i+AdADEpySAMABHSkcs+BEDLDair8x8MZ2lISWJWkvym/NuQVAa9INuhdndFmrr1GCZD8kGJ2TJyV6AE/mYGm8GCAMgZdIdY3BjbPAgEIxj7rbK2//6bYde7dDyxrC/5hTc9NG79+lJEETAyEAVbSpKgeYaVe1WhIiykd3Q1o0EG5PGEwbAjt9Dj2Nd+4ApOt12v946CiMjD2lwl6sZqYo0Ijx1K6yx9NI4tbcBcqnmWjBSXVgZIgc7DPjJkV/7h6HaG438ig8S4d9Al0u7eAbIzMWrCObckl4jJbDj7+Wg7smEjHCSw+tlYHbco3f7JLJbSiW/LYZlzRLE4MnklKIqkubamWcGsz6yBZABh87FoEk/NPCXOI6CYJpQ4ra97NFvzYFGXdeh0zu0WGFbXUDN13H84oU4G3n2XYjvpbUGk0JVzwBdwe+PBRvQDWKFfR4PRqNrzURlhVe4Z3QrBd17RcI+PCSi1EH2NoRir59pE/uaSSlbQyaQEypcJ0TPBr/pQRDWDGUnQecBMOTLAGAAPaoSwPPAJwZA/K8ARRBA8SixG2kehPX3VRhJpnBvJmlXACpoeaRwoQzl+2niBoWidwjG7E5vpxHJYRCOfA1yQCJCAY5p7XSvB5lPTyKuTHTR9SAgxT7DqpxCoFweS81orJrSsJymg2W0G4V+q9DtHPtbY0sXaGfn4FrFBS6l7x75j+VeHkxnyQrUAMSN8B+0DMCuCTbf8wkzQMUv972G2mpUNaFeEJqjGs1RXX6hAv1HYi7cU+SSW50x9BnLeLr7uuXyszAROvg5mrwdvgTechh2Bxcp5b2HKWlx3nRXxeovxayvIjnyK1RgAG4wBP46SGr+J7JGbUBUYLmBLAEIy94IxkaYmzg+2pKvJfG7aY6UX66XGwSh6J3mBzyGHV4hn/vU35RpAsl2VqnfmByQCJQd4eXCbaaqF0eK0ygJ2K179DvD/nrP/tbY0QX62SZiej5cpMXZ33Spix0YMSSQoXWPutZmICTa8FTYAO2KI2b95OYB/vVv/CT029pshMAAVQS1I/RrjXqhsLjfoF5cb6mTeUXihckJXSMNI3pyuPa0Jz/yTv7G11UDzI9wIAMc9+uWwJnDkPKs04nqgqobren14CaYmQc/OaAVJm1E7MG5UXSHdJ6WU6MZOjRTNna5YBEscp6972KSZBsyo1mYfQHlJJjc9xR4DnmZxe0solP2spw351dwLeEvAi+kaVIewEgADaLi7O/vC/5Ys1V/Ffptj75v0fEWO7rEbnYBNCqygjjQ9FFJzEtfqk3H+WelgMatCIneAjwDhJ0LeAUV+MoAqC/4mFX7PHYEsupMVVeoZzVUV0N1GsvnZpjdGR6KO7lqp6wqNuzsCXOoiIBXiSOh9c0CaGY3B34AknXAEf0b1GPdm30CKyLL9gwYQqi3Js1KML4ASGTVEMl/hlcBGQJjDC/P7erjXYjAFgTdrtUhnhvqpVyM1j4UbzdiUqlnDLPNSDIBWu4NaNFPgn9xe0hg2NHtA5bkFcaOiRPHTwOAUTYdY3dL3mkpnqlMUPjrdgp9q9FtFPq2Q69bdNigpUuo+Sb2L9MlEaeoLpxec9ilW2u7IoSSkWBfAobbJJhZPzkAbNvdi1TxHBXAHQM9o+5nqPs5mn4GVg222kxeTEFwcnUf9JqhBhZmYu2NOJ+245pD20/sZzSS6PniOG3k1xd3nKXbDNUllrMHqs5OcK4EA4zm90nbXWCBABAYoZVEDbbYKC+y4tuAa6duyhQRqjrpMW5Y5GFQg3xVDGqUfz7wVapaWdAKQaJqMcLOx9XaXMJx4CkszjF5lsv2hv1WEQRNHBkQBLBbKaidNgea9x063qLFCm2zMuzPpWE7Rm8Qse3XJEfmLBN3zyJBkWVWGkxmQjS6Cp5t+aKEgRA8SQDc8eUDXe3WmPMxFIN7oNYzzPgYcz4C6yMAM2wfdagaupI6TKUv41mF7TKSCnL40Zk08iwTdkJ7PXwAZH+34M//1XYeXXoOiaitunfAFwY8IMHO/VH865iafCMR/I1hXmrfIXkXdKGqqVDXh76fA8Qtc0tBULKR2ilUjiUmKnwSZdoBRG6c8ZOyr6y/DC1zLiVAtEGiKj8GzB7EhKccG5wIglrZwY+dQt/26JVRf9tqhX6+hpvTEk24Jsnu3I0rhAC9JJwBRjcQwqBuBoZKXjTDTIZW0PpwALyyke57Pv416+389C+vj95er++9idXx67ioXseK3sKGT9H2K3TbDv1WY/OwswuWQ54H7zr7wfPgF9wPb0B5UmA+yLjWQo5w71dvYCZB32z7Zr8KJKjA4icpmO6GGxyQB7sUCgX4JQAZzwHMg6fwHX4H7T/4auYVqCJc5ftNFbb7xcV5CO+oatwE6DQbwU9pNNcESQo4pTjS34g5xz8e68Uz+FryH4+GhzqQTbOQnJNua9TffqvQd71Xf3fVJXjWiQBJLzHob0MHmfoJ15ah6x5UMwizpNN3DcBuinCFQZBrjVL83V/5pv+JG/XH1FH7i93zZ1g/9yrOjn4PF7PXsK5O0KqN6Sm2Gu25isJm33UKLEVQvHrDiQcOEnYwmicuestlczG6E3RJRpCV3XGYgQH6SRzMdlqUYz2CAcatTgx6IKp9HvwGgyAQYeMskQw9aNBDu6Kr8fOlnRP4mPCP3bvS8TCHLFFVu+4sYX5Ro0zqB0kwyeiGwt+4CHAY8TsGSsVkS3Hm8p3UAY7chmEJwHaloFqFbttDqRY979DS2rC/ihOQs8HlS42qSXBPZvmIPJiJzlSbgRCZJ2fAcNvjs1aL8svKy7V3pPzQL/y536n0/E/Mqnt/dX737lY/u8LZnU/h/M5nsGlO0KktVKuxO++he6m77ydShtlkHJH2AqlbOe68okPF+jytkQ4p7dFdJOxpioz7VyqowC5Zr8FJu4gGWFPC/hAYoOBrlKuxDioShpdQGCQ1NdxTxk286+WdxtsCH4t4ANQDdTFkK1OH0kaKYekCGuxBptIrKngf8yemXpbDprclEIzMGw6hOHXJgqDWjG5jJj+rtkevOnTYoqM19Ky1xaYovAS2FBAT60t4/QkQaqUBUqjcqgvbOQWdzG69pg7fD/BGtuT90C/9uf4HfuHf+S9rvvvBZfPix+bHR7icfw6ndz6J3ewCfd9Dd4z2QhzYVKqYVxYaubMJip9wk4HiHL4WIi/xwsMPQ6J8XnxCYR2w1nIrJ9cDBgbYdwCS9b2Ryhsxw7TdR120uKb4LipbgTaE5hD5OLrn5ok+PgD0K2ZyuSJEAJjBvfCESs8QFUpOao7hPqQZrbXO/KVxZpMcA8L0thRPVJ4YsKIsJOG7nUbfsdHqhPrbNusw+BGBWUgoBbsozejX1hvZxtgMhFBTgdhscQaC3XQktGGtDz8T5Eb3JP+BX/zzv1Hx0R+f4f53LefPtZvmbZwefQpdtYHqNNpLDVYxC9wn+W/owKIsw6dUeDKlESZ5HmjOAc2d0nX1QZBCGGb0Su5jB7cayBLQUBVUJ+b8iXl+EXJlKl2AwNAdxz16whgH6FDIe1Ks43u1HZR5PMJ2yaDW4rSmNEs5wBAXA6AZIFWA+JixDKBF5iybdtZ/Jr00/4NH5X4omxilnjL5l3lt1wq601C7Hkp1Vv3dQM02Xv0VVScBP3mD0BF4Nuh+Ac9IXRzMYChQzQDP4irMTxEAAsCHfunfan/wl775Oxq++y8t6xc+sZm/jfXxW+jZqMDdWiwCzQ2GTJKg/Yvb6DENvVtJa/VVYHjfgAnj6A4OBECM5oWZoVRvZ7yLbYT8mtbwq1pXoeJJzkCq/oS/0IaHV6MW+RQog2Px+t7zM+CGpwjJdNhOFfLThXKsIxd0iAGDIO55+dPy8PUOMoHcJxg4D/xm8j3yZeK49oZPTUlJXgHsNnYApFVQukOPHbpqDb1o4xDRAEdA2qIKLAMLMHR+zBnAPajRqDAPYT0OaKBiDVJvFl5FUR5bN/wDv/xv/yrpxQdn/Mx/dTH/XN/PttC9Rnspz7PNfJcpeJQdQi7ZACUa7h9lyScfq0tyGMZfJ1MplvdutoFbG4fZCRquETorCAsmCPSdY35ukrPLewx45v0nXfYAAShzlRfHOnNh5Xy0Z55v7CjwTUp491pr9AIAfalFko4YelU8Vxfl8wTi44hTh2wk+yUDvFNAbJD3DIrKT5xLMx7dB9I63+0s8O0UVN+jtwDYN1ug1nnQ90BF8a9/TlEYSu5lPIMJ0WCgAqpG/0495++YLfiPNnP+rswbGpVrnwkyJj/4q39+DeDb/t0P/ND/vj06/f756vgPq7aCajXqeeVX8oxVj7ExX8re2RB+rdhhDW2fb4aszxz+TwKOnwe8T4alZh0PgLg5kk4llyPCqo2Xv0WURVTKcosS/xOy9zKv+VK6riJcu7v775zhZo7ETNMw+WGtoXrlz06OQ1h/ApAHGBaVMwHHzMd2QQbjcyK96BiRsU5+xN9YOhK3BgqPHOPJJe++sQ9rIxPmg26roDs2IKh69Nyioy3UbAuqXC3gsP0fUZialVYQts+df4qmS/umK/GBtQIahaqaQdf8KjX6h+s5/88041//h7/2Q5P2FsrJYwVAJz/4q3/h57/tGz76Z9Su/zjrpuk3BgCBafA0WPfq3GV4ObESHF5wFMJWxmKjHQfcAbZC1C8RkKrrAGA+B+w3Qg3UxTVcJvjDyZmBvk3AD6ntLpZYPQ6u+eth2PEVNCIKBuZHFe4+09yAClzIn90zsVc9lE4nzcq8UDLlBQFEBBFJU0pRZJCLAoDl4uCMv8iTnFjugZf9N8+GJQlkIj2ZlzEQlVYlCmm3GwUV2f9adPUGPO8GEQQQC3WD/SlwCdi5ewF6Ln+ybTG0pqb7ufp49j1A8xM/+5sfanED8vgs0Yl898/8sU/wov9ZrRn9JqhxV7MBBimFd686eKIR32MRD2uxrHucPAOAegbM5ldt4PlwZhkcBxUYMCBIFt5s989gMwgi7DBDqBCuEqQpuZvmIzQAACAASURBVLAtOnX2t95bmudw7xuafVHPv7RAXeOaDDDH/JwY+19vGaArr7dSuiqhbIewz06aIJd7c84EUXw5IopS7xDHBZ96PHbuaFCM1qE8mY4g890H3y4NOozCOzAD3VYbAOyVV3+7egtulM9e9ILd6/ODHSFfrt5G7oPBEPLxVjP+5Wapv7Y62nzDT//m3/qxmwI/4AkxQCe8UH9H7/SfVB1DK/brQfdvj1WWYbjQdwRmkqlQOTAcpX/u+dAemHqaHyNZ6zpVZP5iUUrZE7A4rky2p/UNh80osG8iYsQ2eheyskbpj93LPObd0/PhUnnXK8sr2v/Sd1OIgxl936Pve394vC+qXe9FAFi5c5AhGmYSbYw5/n1nsxblIfOAcs+TSKR3EceQzYV3YJYYWj+Zif0RG3TB9rFBERYAulZD9RqqNfY/pTv0Xv3lqCvKHejkGV10DgiEGizcRViqsa5n+NZ6ie/9B7/yP4o5dDcnTxQA6Zh/Qm/UI9bN82qnUR2bTRIGVXkfEO316iwZsjEO7VGjSUQ9u9R39odf3kkHA6ZKOVZtp8DoZHkXOzVF4ILuwoakAHmGMe2lxkwpeg2iispRuChDe0r30h85AuqrsL+J7F1r9H2PTuUOjw+AoFUFzMT8SBLcK2FQMZOiQXYoB1KgcpYHYJh5cQKsBrgVOYhuzdvdBJQQ588STrBy7O12Ww3dM1Rn7H8KHXraQc9b/66i1uU6GgotMZAHEjakFPTIo25V4zP1An/2pz/6oV8fydq15YmpwADwX/zkP7flhn9cM0Ptpqujh0FJqKDDIw/9g/1x5lTgpCKlJXD3y7u4po1/GLNSyi7xirtqAqIpfgSC8svgZPMIiJZwwYJIOlKEg7FQA7n7XIN3vDQHqkNfDiEqw4iwVui6zky+13YvwiQYM4FVvGu1LF9mvHeYI6naJTkkC4mxahv7cykNPIwUfeAlE04uZYw67jSZQbhC2jDTXzwD1D0Ut+iqHdD0eewWlXKo6obf6AgGCh111dA/nh3TB3/6o9//WMEPeMIACADU8I8yGH0beufsTrZCbgQqy8bC6XFa1pNNRegRNz0CDGao3u1iLNS6QT6Nq1OBB4MeRF5HCaxF+j0sl2kuIpto5G66oj/01ffMGtzJaU0DvSgtpdB2HbquhzyoKiJdikAcRsplgwz4IRqwGEWPACyHalHe4+c+LsSdkA+e+WRplFO6gsg0OSj9YSDIzOi2ytv/lO7Ro4Wqd0ATAJZkxnz6EuBEmUUGJfjBgd8RfePf/9XvfWukiDcmTxwAscD/xTW3uudoh5io4eRb0fi9dywgGsXXOTNNPuoyAyzFv7zSOuDxDCllzgI2DJCG/kVjdCrwcNVGPugwrlFPkRNjDPiCe9UAX/b+u8Ak2+jhwOdSVH2Ptu3Q9WF0kpJfM0iUTBWSvCxiS6IpZ7M0BLpJCDUSE8mbnKf0U+bSo/QBlcMmWZPZ6zuG6tkCYA/FHXpqzXm/6S7gSbyh6gkQ9L+UPCNUDX16dkT/6k/9yv/woFD6G5cnDoD/6U+/9xHX/AnWgGo5/uhShvbcK0kJJ2nEQzG96IHL+xAVr3cYUm5wRkNpBdZufzsxEOMqutB2dBePI8anu8l49+WRSt2Jz2lJXUyMDnjvV93DnWdpRP29zld2CWl0XYtd26JtexFrHLfa2fNSHAB69StM2EUp9BSAS/1GDpl4Cn2MMOPmPaTBM2BWzNdIOBm2bzV0r6FbM7HcAODOTH/x+SPxJ8EtTjSwPfteJfhVOG/m9E0/+cv//RNhfk6ePAMEgJp/kZn9SXLAuCY6wuuGHm9AitEMLd1ZL8s7V2UwhWTt3DZmjg75dvbM2C+g+mrI/CCUd0pbgJAE5PcVI7coMP6mjKoBvvLrn0W6gWucoGO213hvusdu12K726HrO0uCAtMwt4R+5w5NF+CXdsVZgEqAMW73EGPx8d+oXiuiLHiJwLAQhjJuMo+lAKMgCDsBWpkBEK0tA6x2YfODQRcYdb0xiAsTQ+Kmq3n17/3kr/63n8i/gccntwOAM/ySma9WVDYHMqlZjFG3FCimxFfw7JhfjIfhbvp5wNMSNIMfdiMEazZwOJgcRgrWZOa4IdT8eKDRLZ8rZ3DU2rAXEON8MQN/9Gufxb37tGf09/odBqse2+0Ou12LvuujgSBJ7NSuFkeFGnXYMRMHWIOBogQ7Brndg3FDsEzhNInnkNdxMBt09SPxmgHYdmsYoLP/Keqg6hZo4uVvAxugADhRFREzQbhBjw/Nj+oPH1DiG5PbAcA5PsYVoLt4Sse1m8A06nZ4HDT0MsirGDVe3kWmuz5E4rBsT4LT0XnA6ZkXBnBU76YhpPkba50HuBeMtX49Mhh2t1YwA8f3a3zl1z9jdgspJnB98AMA1XXY7gwAqnQKDAJXUbs6VoEhQE98N0r+d+15gKiyDAMAK1CrBHyKoJo65ZhgSTIgmGdr+exqxeh3ZgK0VgqK7QBI09rvOYxNkt2QV8cGyXvyIFjRZ5pF9a1/7yN/e2KhblZuBQCp5k+j5kt5ODYPtblIimMe8tlV21E8s2RS4mPc9foMMI7TrQNmt8OxHJcR514wA6qDUMUKdMIDFXy4tBScOPDgLzeAxf47GtbJ+Jp//XnMF5wsfbuR7i4WVuh2LbbbHba7nc+VVHOdqG1jjwx1jXI4/y/YtgJwDmRfMaY+pxGnUtJpFSsx1AyrGwsnpe/MMQxuBFjrHopa8KwbMuM0HlkmwQil3Y/MwMd/+OO/8LdP86V8/HIrAPidP/GeFhV+i7VZEeJkX13ZS+QmjRSXIh+JsNCJZx3oJmyAce/qjsPUrAXYcQJ+Bnb6NlAEltHZ33TK0eCVpYPe2f302P/Pyb3lgmAw/sgH7uGV9y1FLXsMwOdE99judthst9i1Lbyq5VMNcybVdmYPjU9BkOLWCtGYB4gimKG3I6ZYQHH4g8HQ5akQnjLOlL3MhosTFmGsU7/T0IrNIIhWZgJ01YJnPfyrSkO7dynea3ALCRABVUU/NT9qfmLkrTx2uR0VGABX+C1mTN4g9arjG5Oa22RgZR9nKUjdAPPldRjgMGB8FoiAneT0M2ZG34p4MgzOXyeMO77mJJw8WyOl6t7aF8X9/Lvn+OCfug+QFkW66lfcL7prsV5vsNnu0HbDKTAe/Zg8APoT8xDATzbo+EvQoNFnO0GRICXOLgujyBSBMEfhiz1xjtXJy0KacZgQiXPvdsoCoILSCgo9VGXtf0kiKctOsic6BD/i3lYz+tYf+7nvHgZ6gvJEl8JFUvH/CwC6Z9TuKJPUrCDuJ+FJxlPWXjfhWTmB8c1QZ0dA3bhYD08hhikT1u0DqLWhcDkWGACwEmlSADobXcIt7fIj2G2J7AYSjGhNp/CdZJOTJwYoj56p8A1/8UU0M850sVd5J/tEo7Psb7Pdmk0QCIE9IZSl7ytAzfyh8X4ZnFODHQC560gJSF4KyxshaR3OPZbIXDL/uHxwSD1/fKVxjB6Jmyi7aR4LlZlg9gB0AyBamyVwqu7MzsxpPEmWQ9QxkMPmlCp86Md/8bt/K5/6k5NbA0Ca0Sd5G6vA15YD2xYNLrK30xgMAyDG8phu4MjHOGw4C0T7U98MeLGfG5gywISkgcluOeTYHJmGR3Z9ZliUbnNgV1GYpCSK5O0Mjgcu7lT4k//BO3H32Qqo0oGImwY+G6fqsdvusN5ssdlsB9+V4DZgArqLBnVlbYCVOZ4zPjslhAEQT2HhQcRBsuiCPUAT4iHhp4BvIYQzcfhOiD2qkusck3ClvBBJK0cIwDoAoO41NJsRYG66UAfki85McSLvLueTMghoq4b+Zu6NPGm5PQbY8CdBAKv9XoHwzfwWaeLB2KhY8ZGMJ7ke7E7jn2e730gWfgT45piOlgBoM8R2aywHfFqbv74NjdXtDxgYoNx0MoBg9BJZLGIPaDjoA2IebED17gs1vvFb3oHn3tkAlH7YxwR+AHS/w3qzwWbj7H8CwIRPJmB7OkNdh1Hgyh4eJZW14lrp5PNT8oxtaLcCb4CJDIE4ZeY42M8vSpsybuImB3pjTDB1t3W37+0ASG8PmGLDAHXTDwsfXed7BV+9QCDC//J//MLf/HRaxNuQWwRAfIYraK15sh2y1IQmQ430WAqQgt+UDCB86vhA9JsBQaV6C3Bm11NzKpxghJr9QEnfwiz2h4MlqyqLnl7DbBgbNpEVBfB6lnW0DWgI+5L5AV/8Vcf42n/jOSyP6AmCHwOs0W13WK03WG826PteDH4krZQZ29MFaj8A4pYMVsG2J8ldUmjJvgAgnVoUWCMCKUOoBSxnAY/1oyVGmANgIsEEQ8KDbbCKrA8+ozJM3yYDIKzM/L9ZsgGCeF+SOAytAyYTBNJV/XSwP+A2VeCaz0F8zgr3vdukgPl7DzUJ5hQhqPQgxwD9M04eDGtxmAN4nUYfZ67vUxVYR/cOHA0AUsz+OByZqcGoZEMBkFTZYalEVijxxcy490KDD37Tc/iSf/7IPKXS7uQ3xYiTvKsWm80Wq9Uaq/Xa77Q0wBobpDtfYraorQ1Q7AgD8t/N8z8STDA3j7JEqeQzF2NadWQdLYFhBkhzSogBtKRnJz4MBCNvhL41JzjqXplJ+Oigqg5odFCGXAh/rrC8ds98KZ3fn50vq1u3/Tm5NQD8Gz/2Rfq7vu61N7Ti++7dpNpYKtkm5N6ruz+gje1tkpPaLEe/YS/AFGAOFfdS3E4w7LfEd2CnlfaDI1ozlNbodyTAL4Cg1kBVORDUAFcW6DWITZ5DjkPBreY8UHmffdccX/519/C+D95BM3PlLdkzbs4cEMfFUO3Ogp8ZAfbz98KPb/u7iwak56ir2toAw6YIDgTlOLD837f6CFFQeJaREbAsgVEazteqTFzCghECEvbbBAv3/c7WK6Wh2YwA66orTGh36aUZGvqliv7OD//Mf16I48nL7anAAEB4FYz3MXMwQI+0k0lN6IC2NuaNwQcv5mC4SdA32djtgegWADW7Ix+NauLAj9lMljYqcBgg0cQG0CoNaAKRBlMFIgYxWwCAbWCy9wnAzgxUDeG5L5zj5S9b4ku+8hjves/C7mvggK9Eg24S/FycVnSH3WaL1dqwv+gUuOQbEIDNozmaxg2A1N7+F823k6kUwS4828/qkrLncSEDYKkH+yPV4iIbdD7IO1AmDAHDUWWLY2YAhKGsCqyph657kDv/t1C8UJhYV7fv97Wqwd8rlPBW5NYBkBE0yywDFO3HsZHcS79KMyuHydVCHnke7o0KfGBGikJge8Sj1u6sC7vduwdB9pskaK3Q7chvm6WI7SivZXyVRmXbhAO78EuoasJ8WeP42Rp3n5vh2Xc2uP/OGV58aYHnv3CGozvSXMv2b+xArjFKdPi7GMTeGdX38tIwQGAIfDL45sERmro2gyB2LfBwSyxxHSz3w9QHemnymGKLSfQm0vqdhHPu+wjlNJU4ZKYEglL7AkwH2ndu7qkyI8DooGddHvyipDKRA6bhEv3gj33kP7ux8zxuQm4ZAOkBmMEaQG2dbjqNKxIQzwAi3XqM5ZgAw62wrsmALONjzei6zux113UeFLWfBmPSUorQzCssjmc4Pp7j6M4CyztzHB3PsbzTYHncYHHc4OhOjeWdBkd3axzda3B8r8byToX5okJVj3UM8u8WhXu0my0uVitcrFbY7Xb+Ubr9F8PsAdieHeHuUROvAsFwGZyPB+JBUf2VtC8JKb0lr2vv2yNRB9OovTmtDIKD1Papv0JUb6anmT87AEK92AEGAtxMZkj2ErLN+IITiPiHxnJ5G3K7AFjx24blJDanfeFST1fFmGK4vTUqiSRcDlXgq4KffR/Wtnd09x5eunsfzISmqTGbzTGbzzGfzzGfLzCbzzCfzVD/pTmapkZdw9i4rph6bNvkxO2wMlxPClDcbbFab3B5ucLl5Qqa4/1t0uv1gzmaam6nwFgG6KbAuNUgYgJ0eecuoY7k1Fv/rFCMVHWmxHsaVhCoAQjKaFOtM1KpQ+ID4poyQTZrgFkzuNdmdoGz/4ktsFxAOWc8ArxoJQsBxJ+oGnri213tk1sGQDxiYKhFFQAuImNSbpw25mRC4ye7Geog3NXRWbPGO971Ep598V3XNC2W1farA9wtCffoNgb8Li5XWG+N+uvWoJpr959BjvXbS8yaJqi/fq1qZb1KFRiQ6m/6/QJYiKNXxdP8ag0Z2JUjdhplc5LxDQIJt1Qdlk5yrmcmGXevOjvY5lVgywDrJMOlX8cIY/X3f/3Rn/uuTMFuV24dAF1FiqTQ0P0rPZABXoVVHgJbbP+nirFYAtdEqijmqp7h/jvuoQxS02yT0+WJ9CYTpJwPZ/s7v7jExeUllFKIx2+lZ0ArwvbBHRwvGzsHsBZzANMVIEkeElU0epp+54zpyz/aZz3xQQzSlfyXDj2PmKDMr83/YN4fD69dvv0cQDfLgBR01ZsRYNm/pPlAUnbhiQg/nCnRrcutAiBV9AAoVI6DIkruE/SikWdToywKw881my2AJnsg+tXtgFVTA+j2+hvKVYHsmjZLn/Z1PupYb9ah22xwcbnC+cUFVqt1UF9Fw3McBARcvrlATQs0Xv0lywLFKhC5FphLDVzqqxk1ZKTYQSMMy/KCyujilfYyc88D3RbxSHAmm1l3wmBk2uckCdS3CQNED64NAIpiJK8hDKhB/prEf7dq6Hfyb+Z25dZ2g7GpXx7aVnhwsT/84U0x3Wd5JFbRJhZ3CHTwkY9jchts7CbSvAkQzcfL7QaXqzXOzi9wfnGJrg/nZYc2SdH95evHaJz66+YAitHfeCkc/LzAOFZxO2D4SW9bKrrD2kh/FdQpM3hGJAImyVFyH91m8kCZm1wcZh9AN+3KTIHhRq6wkQHEXZb5EQj4qQ//o+8cZugpkNsFQDIAyFHvB2TRJzUeZ6QIWCNIln3E4/W4FM/iTkYtAg6M6Z91GXlXusVuvcH5xQXOLy5wuVpFqz4CYATptxXa0zuYNbOwCYLYBisFghxIyBu5r6D5i7edjQBlED4kJkeg82kG11DGOI6B9xQjCyQ1ijjxZjbVFRPuWUNDgeUASPqyCmAb7LH0fw59PB1yywDI65jhDwwih0VXch+JK/voimmbA9Fzga+qDn6eDEp4GcDAFcKXRENt17i4uMTZ2QXOzi/Q92FaRukbn/3+MWaNHf2t3WlweQY4hCMKIEcj9SgDPv5vLOCQ1GVuhHOKdikI5uIcIavy3vnVOkyBYa3BsAywVsW8kbxyDDc4XlJFP58v0e3LbTPANQGa/e4Y4w3noGYlCeWhOJIamksRJ67mQPQD03rq5Dqg+xgBu9tgs1rj9PwCp2fnxvZHDrYsk0laPCvg8nP3DPurG9RUo6IachNUD34CtSSrG8gYUhXonGOMWckAZy5q75zG75fxleMcZDOqpvGVO6/b70IOBU0KqJOpGhTi8mCciZeIfv5HP/Id63xpbl9uFQCZsAVBZxlgpi2N2uVyo2NT8jDN217xDPDGRoD/WZOR96ZbdJsNzs8vcXZ2hrPzMygtGIljHUlM568vUesjNE0TDYAYRlf5wAKmBABRBj0EXRr7zAXEK5LBAoMspTOMw823K2en7M5RhKrT0BqeAWrWgxHgQT7GWeb/XUj+qZDbZoAtA30wAfpPkpdD0GrM78GadgmYw9QUxtiB6JT4nyrXUSWvCu2PQ329RlhW0NsVLi4ucXp2jtOzc2w2O69ekgSlKCbG+WfvYTaf2fW/dWz/S5bABazJsDpxEYhiUIsdVqYxjQFY9lEGCEvxZJngMLux/wyWJ1QOyjJAfwaNVYGpihtN7l0N3ExBn1r1F7hlALS9nA5TAMzfvs71ZhK+qbChYhzdQQEAXdkOTfgxTSW50TBOrjrncAysGdytsV6tcXJ6hpPTU5ydX4AlaxFqlwS/yzcX4O2doP76uX9VACmLROQY2wDskgEPYJBScBLxpT5yaCeykH0tuaAZUKPUYcR/Lp00vOrt0krHAElBVyogRYHtxRPQfb7XRPTre3Jxq3LbDFADCPMYoglGN5lMYgdM2lu5+Y04Dh7adcCj+b8KA7wKsFxn0OVJgq6cjZuRfot2vcHZ2QVOTs/w6PQUXdcJtuU6UakAm0nEJ5+6j/nM7P7itr+qCuxPQugQ7ET+BkBZKHdCAPfi0ATQDGUdJj0IJ72ljHI0PFsGCDMA4kaAawW5z1+6c06mRO75xz78kb/x1Nr/gNu2AQIgQp+qldm5fmWnqenkn0nTRjIdJ9vjJ3RDAmv5POAhR5kuN98hPJ70brhseod+s8L5+QUenZ7i0ckJVut1AC9hUEvB6uL1JXh7jNlMsr9k9Yf3HZAmjm1PefahWw4TJ/jPAmH51jtGddWPag8DOQzPhycotw7YHbkADa7UaN7T+MR7/MV8iKdHbhUAe+piBmhlclNK0HCUe01GTtkfTk/b2ABRQNonPQ3mSYLYYxDuoDYrXFys8OjkFCcnpzg7P89/7+R9swZOPp1hf2L3Fw8QAkAHa3o9wEl0GUKkY0OHDG4M7HEZ/6MgmAt/ABP0cWSk7+wu4xb85AjwIC5K3ptj4v45/Vo+ladHbhUAv+vD7wEiAJygMIxNar4CXuxt8o4VFlVfG08FLI9LLWFSSjcotzF/8IbS5B68XWF1ucajk1M8fHSCh49OzHpf+3rlGbTpWz35zDGoM+yvsezPTH0hRGeAOPjKAFzghUJJdmlHPhNAFH4GYFQA0azk2ODBTHCP34In1acMUIErd7bzlJgiP0+1/Q+4bRvgQCbYoK6Ij6VgQ/+JCjyp9jCaGWO2GOWgI7n7fJcJHdcU/6zAuxXWl2ucnJ7i4aNHePDwIXa7HbL2uiR4t6lw9pnnLPuzp7/VNUhOfnYoEdkNA2pRJt4BNcvqkYl371XSpYQ7ejCPYTVFsggEY8I1LmJyo6/LI+FZuwnQchK0Bmp7Dgg4ymL4lT2DX7L1BhE+uyeHty5PAwBmjs6+OlBE3zRVUydFO6Uh8+BufgxU9VjYJ8kAn7TcALCzAu8usblc49HpKR4+PMGDh4+wXm8COIk/AINX+vbv3MesXhr256a+uMOPYP5AsQUwSAoSE75XFseTzIaYM3kWEByhUbrus7yvY9mel0svF4FIVQPQ8qxpqwL7KTCZ9zWIyrt+7MMf+Y/Htgt/KuRpAMD4vUYjwfklGdmpeO5W3lPsLVfH9kp2oHIYkVkHPPY6Px/Y35O2ObpkewN+KwN+Dx48xNsPHuD84gJuWlQ8dDFM8eLNBdpHz2I+m9t1v7VVf83IL+TSN8QgGHAsYWBFYhs7xja5vGF6TJ2N4kkTphBnCZungWAeRKWbUuIEQdbQ0ODCKpAoH+m9Ses38qV8uuRWAfA7/+xrSR4E8EX3QvZpyFcAOR5D1Kzz0M/yDgHZdcBSnmYWeNW8Ea4F7roDbw3zOzlx4PcQJ2encIdlwdn8vIoat/B+W+HBb72AxXweRn5rsezN2f8iGKLB//nSJROexTK5NLZYnU1ekfQ3kiRZwCPpu7jkYlyKgFcAUK3cYVoGBBkMJp2+somp0ccPyuwtye0yQLOYXeSBxVW5UY19h1E196ZWktgcyOk605bBPamVIFeRq0zUvko44VftoLeXWF2u8OjkBG9b5vfo5ASsAwjI1RqDpBh44xP30UAMfDjwcys/BoMewf4WRjaGjLCk5OWZoVRnR4otoygwzPRMk2ykE1hg5I0STxn/2jFAe8ogQxsATI7CjHh4Nv8APk8Y4O3uCH3FBn6VpjrW6w59TgMq6XNZXAVyXblyaZ/CMM6/BroN1G6H9crZ/B4Z5ncamJ/chcWt1khTfPSZY6izZ3G0NKpvceIz5FZZKfLIffesDKpAidlRtrqQqBwc+R9Gkd1C3wEYJ+GZ4E5wzp0DUtz5WTgaZ46eEyAGQOwftB0BloMfNlCKpf4/BoBLED49LO3TJ7cKgBVXFYAmrzUklfGa2MJA8UjN0TB7nrur5V16DPgn594cEvl1lt0dms6BYbgD2g267Q6Xlyucnp3hgQW/s/NzABL84mkqaSqrB3OcfepFLBcLO/Dh9vxL1F+vRqZjvBmm5R+RKOKe8rnHBRCbNLHBJZeJIweC5pIngWBuB+kcNmplEvLsz84DHCeOWZT93Q9/5K8/VcdfluR2t8Q36u988Fp9+y00sJH2PXCegAXRY+YJ7XlYo4+Kk6CvkKGBPA5m+aTTYaDfgNsdttsdLi4ucWJXeDx48AgXl5cAYHZrGcDUUFdsVzXe+o13YD5bYu7Az+/4Ire8kiO/8i+FvyEwDpyjwdlw7I//LQDewHkiMI7GEaEextFN3vtrGgBosAHaX9JApYfVIn1l0esiAPxb00t2u3K7KjCjAqMZvuDpauhhyeWbeOQu0i7DwTB/Zi/AxwUgN0CB98pV458QTndAu0XftlhvNri4uMSjkxM8spOct9utYSrujA5vpxMTnkUyqie89rEX0dCxGfWdOdU3OfNXMsAkpyMTSxK/NHzMsR/5y9FF7GHAxDLV3FW/yDkbH1k3HvjZi6+F5uVtgOwGQawNcDAtJ3sr8/bbpaSfNrltAGyQGztlU8fGq+hESTvzvXptYID7FDzi0Osv7x0CgNcYOJgsT0Jt3iO6A7oddNdht9vhcrXG+fk5Tk/P8PDkBCcnp+hVH9n7nLYaNN84T1oRPvfRF0DtXcyXFvzqmbD7pbu+mDjioY0yhYlTK7T4DCschEhV0YyfLFge4obknN8x/4ThiXIJCzQqMAfwA9t9AClKq4Sg4fkfMMAD0ncHs+Yk/2AATKLtDppx+mxfG0/YZ2iEOUt3iHe6Cvy4mdx10rkJY6sGdA/0LXTfoWs7rDdbXF5c4vT8DKenZzg5OcHlap0MdqRz9EIPGKZpED730eehL5/BcrGwqm9TUH3Jq77ZzbSDIAAAIABJREFU+YORjc8Rl5gjDmlYRkbolrHHubojenSO61duEKTEBGMQE3EngxryaTHfXhU2gyJaBfYHqwJzVZjLTOlNZIj83VKyT5vcKgAyY06MKvqO5on4FTVBVtCxtnqddpy1AQrdhYa/RFYFnpbANTL3uOWKoMka0ApQHVj10L1C13XYbndYrde4uDBneJycnuDs7Bx93wMgUJUAnxj0iNgfA1oDr33seajz+1gsFpjPzXI3M+0l3vAUEgQj2hYDK4DMMrQrvgevlsbflyzCsSuI88uyjEPwKj6SNx49C2C3jwUSDNDZa+VsgIIFer09KmfMdGXxAfTgp38JnJPbngYzB/LEKeDL4YAxGkI+zF5nqtKeLFQNMF/SRAZ4FXlSoLmnV/EGIh1ATyu7hlRBKYWu67HdbbHZbHB5ucLF5SXOzs5xdn6G7XYHAGLCsADAaLQ3zkPfVfjcR1+AXj1rmF8KftFyN/N/POrr0oLQO+VvQWh4mVdrU1QaPjbAI5+FXjTKVoYJpmlGpDNlcomeO4KrIpzxoZU2bpEKXFrNlkFXc/8GCJeFQE+d3O4oMOPYT01J6g0704O5G3h4fHCQq+GjygTmS6BuDsnRk7ABpunJW06uOVy7lhGBXbANgRmaw6E5Sil0fY+u7bBrW2w3G6w2G6xWZhv7i4tzbLa7obrrAcpjFdIVHgDQbWq8+msvgtp7hvnNxHw/y/yokis+JPClb1CC7PCpux6raRShT+zPKSljtr/Avhy7DSAobgdp7p/fV6hTRZyKr5lhVWDH/qwKTKUd2ovt4ZMf/shfKz176uR2GaCmu/6zFTHBfaXYw5itbxDNQXgzDnYD4bHzgJ2fXHwCbBLnyI0HFwmAyWei9+ehG0dGJeFu/brzmSM1iNkclcj2lDCl0aseqnfA12LXddhtt9hut1hb5rder9F2re3IYuDzo7KEsDLD5kq+xdXDOd78f15EzXcwX8wN8/Pz/cJa3wpi0rOd9pKyv+Fysvz3OqiagPJsKweSkdqbqqHB1d9mWF+RyUWqME1igbmYzPQXAYLVcBXIuBAA/ryYAO3ktgdBLAMcq3aiu4ppYXo7SSZhYdBOBDqXhLC8Y71vtsFvtofO3XLBSbiL+wBWnHkW+wuAFn5lD2/YHMzEVzv3ywCdYXhKa2itoJRhekop9H2Pvu/RdR26rsNu12K7M+C33e3Qdx20Zr9yo4qmtJBYeRazwMDOCMzAg0/dxdmnXzDz/BYzzBrL/OxSt7pqQHKzA8hT3gTwYVhHSgyvuPQtK5nelpPbHPsS/oa1asSDV6OF1wKzs2O72WcyLplHR/jFhYnDbYUvChZWzXDItX9Ovzco1lMst8wAcRcYAzH55YZoVwo2BnL7w3DBPZcnc7e8C2vYD49kBfTAxIGFOQAydS6+dn9e3WQdTVDV7p5l2OReqjIC+LTWIg0Dds5Nu7NgtQM8DaUVVO+ArzPg1/fouw69BUUHxkBYY+sHM8RKDLeRQAC/4bdvNxXe+I3n0J096zc3mM1mXu01m5w2I2d8pN+ZEOZUlVngsF5MAL+cc4o7I/SrxBjJ18Q9NDAFxcivY6cBwIrr5Alg7eoN8hshyHyKNGiQOr9aSOWplFtngIBoBAnasB2R9QwhpXx7tM4csLo6UWYFQ4CL3Dw7dBljzJYaF5dtAkZiPaUHLhZsS8fA4+51ACLnR/obglj+T8t7rf19Ni77fCwd/z2ARN2XAxr2XZHlYR7kLACam+zIKzPw6NN3cPKp59FUSywXRt2dNY0BPmfzq8V8PxjmJ0d8XV4g7yNQKkGdYHQ8UrH26Q85EBzxE2Ff5DmnL+fji4CUpduI5pJE5Ey9vvNMGGBechyWPm9GgIHbBkCNuwLhDpcRqjdwFn4p475XNS56IKw3O7z2+gMopQyQKSXYlPKMyt+r4C79eMCzoMUSMBEzxaDaBmBC4n6ojO9mQ6iSKeuRfwFwxncKiMJPIpcPFnj7t5+DWt/B3LE+B3x1g7pxaq+b6xcmOxsVu3IpRr8AEp0xLk/6vweFMTXhCpJlXxlwSz3QOIQdkgMAYrR58ATQmr0q7EaBzSYIYzkwOaTY6Q8Y4GRh3M2xsZJn8xMC7KurB+NqJtAUO+Pr/2SJs3WHd375CapaZRhdcGMdszqv3krVFU6vYQFuLLIn+CqRH2G1Lnvyu/+5exFDf3m1NQBbABJKrzNprh7O8ehTz2B3cg+z2RxHS8f2ZmjqOgCfAz9v80tHki3gefbnSxrne6xGZMCPUg9OCckE58TrQHvNgeA+pggHg8JzqvbagDkWGK45uc/kX5hJfAeLzDrgQf4i6cF4bTzE0yW3DYD3CRjdSHRQCQ0XCk9kpZ2IelcCx3zNMqJrnP72u/Hm/1fjpfc/xIvvUSA2DVOTDnYxTWDReA0I2t7Xng9vtWo7kidBKK+8+ZFUn69wub+MNLhNAXbgN4o3lx4l3j39A2Dm9J2/foTz37+H7tIcXL5cSDW3DgMddoVHur2VnPMXWB+EaSOT/+ijZ9iff557A7LDEX556OPajC2Kt4BYI0AWe9vDIQV4ahVMPMEGWED7slwy8VN9DnAqtw2AzwIJo0jtgChVRvtk7ANdDemyqWXjFQuW62qGpnsev/eParz+BY/wh792h6N7QMUEbQGvIoJmQkUVNGnoyjBBIg3W5Bkiw/XymQIkRZZqKE1gxiOlSrFrkocsGAo3rQm7yxqrB0usHhxhd3KECnM0swZHixnqpkZdN4bxib+qqlHXxtbnJzrLEV9h6/OQFTHA5DdLe9OCxOA3YvUIvwcg3sB7CTVTcLUs3wsfkPTEwRA3+Cvt2CAGJSpwXitgd/XWj3zkrz3154BIue1BkPt7ASqqhcMqedBUmBJbzNX0nG1wpEUQVairOZbzu9i+Sfjo/3aOd/8La3zJVynUtQFArgikKzBpswxMW1CsCKwroxpXGpUOtkCnFst8BdyV62RCq8zW0fKtcN0DnQn+GXMRgTWhbwn9rka3qdGuGrSXDdrVHO3FHNAzD2zLmWV3FvjqqkJlVdzaDnC43+hQIyLITQ48+5NAOLDz5uA5U77EyUVTZsPCo3x1aZwZt+KobVEyaJvGLZhcPhv7U2RrA4TveK0KjPIboMEF3tib0FMmt80AnyHsBzBrkUL4vCMNNX10AAt0zGvQIMZA1j4jVKipBtdzLGCOEXzt4zXe/N01vvRf7PDiewDWZNgeEYgD+FW6ssBH0P7a2QzZ/zJrn6Yzacv/fRNg03xdx29G+AjOyM2aLHABWptfVgbItCKwMu7mmqB7guor6J6gVQXdVVD2T3c1WFVgHYDKbUlVVRXmTS1ArgrMTgJeVaOqKw96dVWJoyzjs3zD6LL8c5LeC/e99SAHd3sqTgZxhk7TaWLkcxAso3ePRpT0BiV7o6syXgNmD4JZFbhgfbLyBwB4mNB9qibUTY9M9iZVkwsAxSgD1171Jp9fZCsguyVdFeqqAWPhvbWbGr/5ky2e/+IWd17ooXoNpTS0sisslP3Tbktys/Df/Mp7A1QxoJFVW8w1/LXNq/t1BR4UbmSk1v8igI64dip9TQRqyG9sIEGQqEJVxYDoAK6yIBg9I7uXnzjHNx70GE52drBVnsQsKaHkgft6xYm9JqU3af3Yi5ATgjl6V0Kx8YztnRgN+KlagQEC4ozfXLS5N/TWWI6eRrnttcDPlJFrSgzO9lD2XALHYoh9qrH3R4inCFiWQjXqioHa2VAMKF68usDpZ3szIsw6sLmoag5rdNRu02kkBLvwP/FvB5WiARTpJwU9+TwHgGKenxvUGCxvIwmMlQBEMoAWgRzZNbwUA5//JT/FxaSdW+UhypGCXe4djm0wmWV/B4q3tYlpzB5oYsQZw64oCBDHSYjMITkml497j9GQTKcKILYBWjtgtg1R9vbtQgpPrdy2Cnw/GlVzMpmF+apWBMEifgGxuhvlYaS2DEAxFIAsCFaowZVGjTnQmEaudI9az6BZgVmJ6S5h2kE2EWIPOlF5bIuQABkPiASPybzlJL6Y/cmw0URm95uwwHBwkZia4oDP2e0q8sBH0a+4phj4IIBPbpkViksJqJF4dRlAHHyznPuo44iIjyMQiWCtEZlRh0ENm0Ae90dSeuYMSGUQ9ksnpQ0wWQa3960QHu3z8rTJrQHgf/JnXgdO8LzTaiJcGWWAucpEQy80uIwcBtFfr/u3P8a2BzIg6AYrjUpYg7WCZuWXssFDX7gOmcxEb9PwzqPAFnuKGWAmDskuHah59xgkycWRA0EJjlW4DswuXEeDG1XoQHxnEgGfBDVxnzI7X44ULP0LHHQi2Zc9WXL+96gwo2xNuCceGEPHXBxjuFjypCMGaOtkMgJcLpWNjP8AAKdLzw0Yz7ilSpNHcjMyzYa4x2kkEoqei5oj1GDT0VsGxISK6hC+ImiuoUmhYgWGThigsLkU8jFUYUPmJPDFzxPw894koJn/oussI7RMMgVAIAJBSBCUACgZoQdCey8Az4OqdBPcbwiGEtJoMIgVfbZUBp3hDYCfp30DxwPjHgbdG8uByCe9u7XAwJABTjdJ4cEkX0+R3BoAEtMxGMdkj0Xf944HdgjvUFZ/gZHKP5amV6Nsb5hjjMNUQGQXBlkmWFFlyAfD3IOguTKrPxzrkwAoa3p0b8zYSWuNykbRjWSA5r/kcQJuLo04rvRZtFuztBU68EO4HrMRRkCI4IYI+GxO2biHArgOMwZB+cZor2ocP+PM1bhMB0pfDLk1/j6bHMYeT1CnnVv6YCRNS/y8ZmLAz+ZzdDlc9Db+gAFOFsZ9sDH3FJ7vqWfhIdv/YoAUXkqsak8GRx9lAwdGwnZ4u4KpiEwG+Ih0DICQACjSLQCdc0jbt2GBIWOR3YaoEDYAI4mHA/shCQ6WAcHUNggHgKCg2gpgjIFOsrzU1hfchzba5JURhSclf5GEF0HSLe/TW3l9comfMYiIFVYZYyGhESHKmhQnxWEeceTglA4/DxAODKUKPJ4x8T5Ox3P/9MntMUBNL8I2EACH0GyEACK+Pb4odSyAo4AQ+B5w4E1WiPjaLQ8PwFP5mMn+z+SqorT9JSBYAjxRmLLqKxhSBITDcAOw8+mFgJSAi7cJehYZflMmGKnEwj6XbmElt80KOY6RfviNKfm11+JjHVSlRiR6HwXsAkZsehGGhE5ubGK0DxKFTVLaB5pJWAOgwwAcVcNhJzwmIkefN1vhO7k9BqjxPCWsbZ9dLj+lhYYeMz5yEebSG8Q/1Dyzz8M1iRxVAPT/3963xmySXOU91e/7zc4Om80wDMvGRBFSLiBCELKN8dp/omAQV+VHDESJRALkqvxBSpCCArIgSBCuIuHikEAQEgShQBJsc40IEGLB2osQiSICyLGNWe9lZnZ2vst76e46+dHdVaeqzqmq95vxft8M9Yy+eburTp06XV311KlLd2ParEIz8VksEgkBJsZE9iekKHgxWZJj6dxxmDghUXbtMeGFZLgcC8NhFi4eMyLjx1MxMAP4MLY4LxFFchIXpWRly0xIluEiEYmUwiCm1FD+RaeKTcQZVSFSmUBlIf8WGL4roWBIiME0AjwAhBsgeAcJ5Q5HHi7725VNL84BKWKBPNOfzSRsKb7yTeS3VKiF+pZjV9EU8luUBdESsSXkFcpOYSaNV9NF84aBF2jS9Hw4vPzOJOfTsjCwMPfLiXD5jQoivihHlFGBxIwkDaFdGC8Apnphj4CAeZyczAWo/EElgTo1kcaDE/H08yvXlv+mJ0HydkXYA9geluvF4yI9wJsAYLqSoMfydI8r/KBSC+w0B4m8lRkGpxlL8byWcfILh8NLQn/UzYslFISmnx+czmPODr25yKtZykYhPTGeFag+HIYnRH5sOKnxcO4FLjIS5YUhAcEF3l58jEg+KZi005AgCfBRQBwf1xdlKKw6W2YZapY74jLkKSDVCwzsCF+uYAC/B3BZDQEQPH0l5B7VpTMDMxxwAZcCF+kBfhL3GACB4ARkq84Bb4wWHQtnWkUVFYR8JZyrXexx0TwX5Mhx8fQ4ES4/ihcYX14wHNXkGVEmOk2YdXBswH7Soa+LS0kwJjXu/fH0nPSmomCGSx6aeGdMej9oUaWxmI7Qj5ezc7/nJsFQMkgjsVkgQAmJZTMtGjV5gF47WwVe7FDqOgu5959+/eszBlxOXCQBPgUg8XAecB46oWoeoDQPqGJhNXiGQ+j5LeoXcTdD6ORTI036WpM5PMw6doRyiyKhfEqIJjhhbdyEAfGCCGASgjRBuCc0l5IRW0g0Eu1o5CeT3uEVKu5RaihSManG/RIVCCSYVeM7FfVNL1V5eyyvw3KuIO+Aq8qFHrr5P+BCCdA85Z5tf2B4MMq0ecAwMjz2TZeS39DbEVqJy2xRxIlkjjNMl1mIFsEl5xY75PjQjpADOQtGhBeExRQWtRoepn6ciMdJcnE85OMYIkEqsjXxOZB4WIcDySqXTqlhRbvIzf3NgtwDrDLQPFQvQl1wkR7gTSP11oVKm26IRrFSL5O5+UUMj1QkVwEWj2/Jz2QyWrw9RpDuw9OckUj02FKvaiGqMD99MaREmnyeTyFIro6HmTjeBHJajDrXJ8VHueePK86l2xQPO2sQzQkezmeVKUpimfjSPGCwD3AhQsecVFMWjQAPxOQB3k+v68DuvOu95rBzjLFFk5K3v0T5B5WE18TYC4zMdnbyIBPJEAtn3h/TkRBbcJ6fCYvzVD3JQK9MiKFuT2ImVpqkrLhPCVkiOS51kHG8tLXKlXCuH1tMpyhMksuCTYGU5OP483iNJd18Q2DhCZAIbQhci3d80R935hRPmRUeAPkBy90jLB8HYl5EzqOsGUoFLWSupaIsU7Q0VKJwbi02Ip3+EzQS5udJ5rBOkEmPgzCN3JI0OaKsIbyYLAVtrm9iFy7t9RM8v7TYy95f0B8mEMg0zi/2CCkSuC8wsinokvjx/r4ZF6b1H0MSdOfaqJ8veig9wAM2oTzITM1VsBchHIzSZIby+qFqVUGlLzN0qEMhgGBMYdyfoxBiYZRuCOZ754KcWLrg2G0wjv0xlo8xEG1hOYZxcTjTTmFejuyEcpGIU5ZbdDO7maOv1oMDPalq562yruZsS6tmnQcQVB+X8n68h6hzmaf8/GNwKcGKl+TUPJxzgBdCgIbMdRDW2h7A3OcDhVMWEDfCCltKAnx6T6qF4vSI9z5EYkj8J040qayJZGISQqRRSlMkwyA+HvTyv/g6+fVIcrNuApOZwcsmKVuTOEaa9ycSToloYgdHr1QfI5B4qEF2YCvcxoMFlh4mntKRxVhMI8BqEJ42ZNB9DHIXv6SG8zsLMtKhWaIsIcawsTuyULtV/S9Pbtow1nuJcd4hAUweaErUXHtMXJEUsZSSFyh1JFH6BKSXc3o/TKo+49LRciSQIEnBGdTJSpOIFSke+Bygd6cpyCB6CkR6+0LaxB66p0CAiyJAa14HQvgihAgH39v5BjLfC65qn6OiZN+4EemUe2cjtSdBmhFZRDxA1MmL3iaYLSw9MXLMPdO0pDNhvppuEsJSYovz9IRL7hxRmlivEA8hXrA19uhi4hSJVETkZVZA9iZjJUuZVQwxZXPk83xwagwv9vmN0P5BkII1afS+KttLhgsiQDw9EeABaSp7P9fA3Fexco36vOGhXpEsnZenpC+REslDX5HgRI9Mtln2HnPXGHuu3v70CqRriv1gr4uTITGJlGSR2ijFB3pRbMNq3VDcvkyUl8lEpmOTOqo6FNkqIJ0St5udSENs/fo21QZeIlzMHKDF00CBAO/LvSckG5gzogdlVRIukCWCMz4UDYelB+WZ6F5IhhNmSZ8R5RNbRdLQhsQZzy6wU7sayd7Ys0T+Hiodp/NysmwmB2u0JTqrWZXh2eF0KKc4VE/QYajucqS3DYHvA2Q+eXmDiA970HkAwTDjHCPhonyywBFFSw236MXEXp5mVEyc8dxeTTMwyTWIXh0xWtWGv3GaQBZOB4nXz/NS4ikNk95rFw61fZr4PLFTrB9ypaHoL4kUEHhYRT9SQXIR9Tqku+RNosi+8P+yLQAaAR4AwtPGoLjD5P44sb6CBGbwHq/aAFNo2EuYThrxXF9oXUxwhsXls+WNPRj+cnLVvFbS9AtkFqSTwrkioQxEe1KPMefp6bdLsEmSJ6nWzENCibeYk0RIEspGKvc/yVfhduUk0aXCJAc+HbmvgUxawh6vhDYHWA3C024BJC932LmYPmxYsYcPSA1ZUJ+OCJSAyJtSbcwMebnqA3qB1I8LCTe/sJPxOp0d2vAYCllO+qQyhxAWcktmeKwRZKETkjy8uvtpwkjOVjUOXWKvctElVMq6UpHai0Tglb5CQaR5gDX4hi/9EAC8bvpkxvl9PN3byXgJh0+yFBttoFwjgTi54OFRPAeHdJEheI2Sa4CM7IK5uNSjSgg58EoTwwP7NK9Fnv/DvKIdQ5YV5woTjpA7i9KiQ3AUe32F6ueHgcvfOSpQLkOtU61UrO2XrauyFPFx5P4Kwx/x6r3YQ/cuQOACCHA9rNcg3BQXQM7PhwUl5Zp2MGlmvQ3eWNPePjNrFska5Q/hcXGbC89e0gWlADJD++z8p8m2+zAq7wUv+hJ1BW/PhQujgFBGJhL/kfAl/YHkJziLH3OUTEx6VP9DUURcbEhkEp1tCFwDQ911Y3Gt69JHuw6F7gVy/uE9dyUD5hqUFC1eBp9vK+eXbSQacUoOhebhKZ5aipAcda9RskMnCiKft1cnyGYXfsrhMZmJRS94n6on6Qr1cBqTdVa4fcWslLHFgSa6VsHfAk3n/iZII8AaGMLrQAamg/84OEd8qrj56nmYW96YivtbtQm+qp5Ukj13GCWSzDZUTrjlOcYwv2gIr3X3pZV7sSNR9gyyUViezFgtCTxjFsSJuVSHIt0l+MfLSVl5jhPwA4oDtUMxwGkQet0DHefIrnRutrgJOnu/qQ2Bq3COTdCVHWImYqlGNcOt89sjeWBhX12xKHCwAdIcXQXZOkckJD7dg2KekuQCa9e1bH+RlUaq4k3QXL+cXkVFR5lcK6Vhcbz3iCWFyw+x+66PI89fFU2dq5tgETKY7/wUKt+4alPmg+YBVsGap0E0PwZnZpIoFHamMtdXoshjKOVzjuPqAb20QVnchCwRtgl/a2xTw2o85IInWdxOI+Ufpsl2CCI5xx5heJyq4V88S6IQemoayXtxAqky3kOk6A+uD84o1uNiwViP5PzG+pz3Hvl5gampD5j1Uv1xI8AqWDxtYGYPcOkna2ZbD4fcsM7Tc95HfiSEBZDmzaaw0Ivgnhof5kY2FIjPv9EmMwTlRJVtCbl9eXlPN11ckeuArD+1S5SLCFciQR9WWGhR1Lv5M9eRK8wU2VTbF9V3qofIsPldhA6Ipz/CgS9EbUPgKhD+DBBPJd0fC2k9lM/CwHdx0ZCsNO2lhEthxcpaalCHGMCjWLyJIh2JKo/FyX1Dxaqn4vkVt6WU5hkljzDRn3opsc7Qu4kauJiv5DdqmYSZRf5j1qCcoydpT2XzC1nSXQtp2RvCy8jnlbbGShJuBFgFwlPpi0e4a344GYo3iCJtvJfnlT2XHSfSrCeUqi2Rgr69JPzVyF07Tj2a8jA3zKOwCisRVCIvrPiei/w1spSH/3FeIblLrp8/JMUICgQ08EjB49PupaYiCxLuWV6NCcJN8AOwy3arIMtnMZnOsn2NAKswPwYXhi2lW+3wS3orIpNqcKCe88mf+9OflFnIS3OJ/uawEtG6Y58urvBJAyg9o5y10cuq1yJ4J3JeGnFKeZg0LCE2w0ggzS6Y91ONkl293LVKkWnHkemmJOUHsK37HKZ2bXVtohFgFWj+GFIcHJNgXAnPd1Oi2Y4lob7BV6rXYh1UemExrMJ7VL1KJW8PbfVVV51mpXhaiaC8qinqlxqTVJaOfCvKyXGLXvgkyicnily0uCKUoXptPA2Jp7JsaobPQ6mMms5s1RJ7tfkwWPhYSoH8HGBVB062Ruqy4TUlwG/8gg/BEG6GzwHPFFX7+ioB5VS81s9bAA6cdCYhMr+AUDasas6vhhTUlxZMkF604NtD3XCyaguR+kSKPqeYtMsarylesODGSiTowsokOB3mjZD0xzpV2xX2mrplLd0SK3NiKAH9WlgO8TXwb4Jk7RfynnU3D7CYGa2vgPCkEfx3onwVEFFybURHYckvo7KGmOLTIjmkQdqEdV4yfm44o6BYmZOpcVUuKdoCMfNyJApbVkqukkUsPkmTbmup8R6rSNCFM38wIjmkp8G5SFIK8XF5EuXmdiE9sqfoCWHiwkvT2Tg+YvS6JtkIsARDeAKEq/rHkHIMo5PWOSxJ8yvozi20CMF5JF6YkFA8rtwuJBES16E9FldzLOZjgkfdZFF9QSMgS01HQILKthaNECUdi7x0D2mySwSFf44fYu4okF5isiinUqoeXNFG0g3g/kLCfYwFBDNLbQhcBpkbIHTa5zBNYbUgF6verux9rFydKHgtWa2aF5Zt8JxM+H7ATP4VJJVt1KqeyEus6TMSfSZdSZeUCnbECw+54o/jxM3KZMT55PT+UEBw9ddaRqBTVE6JcElENUzPxMW7x/xcUGZjmnq9bQhchsUNkFFzLfU+IlmUzsUgpVoXvJDK+n2u/XwTFu9sOa1dnCgVQ8Hb03Roe/ZqvC65aGVZaRNy5rzWHndKcYh88cICMKsq/gtxOTKSgin6y5kRs32WfDN2kLZJXbp0u3QWzEqj5Kxvn2geYBGE6yB9AQLgDUPwCorqDxXSVjUK6dixth1B3PunKpcIILPoIEzr6HsV9a0wCS8ExzUrs/kN09W3klJZ9foje1KyTANTEjT6424U3zsmGKXJ1bekKxdZMBuhK5ZsUMuK0qBYbFkFJoRvha6dpJ7qS/MAi7C4DkL8SOL9o8Jl8EGZu3oOe0SvQc+LhXEbAAAgAElEQVRcOabQLkEmbjM1+wMpiqn1XDjUfDRSVYg0ZYQ8ueZsjeduXTt3ZZW6TqGMa+JqGcgESS7D8H2BPg2xuDpe4xvW2QbymnrFzboPeHv5TTpQqUHzAIsgPBm3db2ctUlzXbRuRk9SlqbMNY5EjdaIquyR34Aipq0hj8SDOmyxg5a0mh1cv2YnvIzYN2nkGQlx2TCdMI/n0hoxX83WgBiFe5AlQkaGqdconUusGMXliC8qK7UIJBPmMHF+2k6v+fIe4DkIEI0Ay7C4Vleu3EUUEij1q6bixOcHDblrbGcy6v67oLdnPQJPG+msGY3EBFLTJYQ6MqvDCVH5Vp8jtXwrzaxqH9L+AtKgsKwl28Xryarnl6tJsN9lO9fyp23v8m+Vcd5jKQuWQ9l4bo8uahfqYkwuLoPk7k9bBS6DLF2Bzd3lRZBXnLDy5JJWrunyjNjc2fn9x1y4LBxen0hugjeSZFRFsKFMXg9ldEry8vxiTIi5tS1VVognMUDSLdQXifCilyTQEpRp++levbijISXMRx286ViwPel0FHkXkMlr8gDB5gLJL4Ik1ytqsYBpBFgEwRKQrhcl5RlPEuZXCZfA7D0q8m4am61kueRiZTPCn5ZzrYUxlKG8FpYQS2FYG0Qc3t0sOmICkvPTF29yROs6gPgNMMtBfG80t0shwiCKH7C9dFjIhBEdj44vR0WBjMUkoWF53TPs6A2kmZ35i/EB7g9ycudX0zzAMgzd84Wsw71wMgj0AeqeMj1YFfS3tnLOUWuUNRlqG68DUqjISz1mlTMjn1JXtJpbQ+aFcpDIKYlX8uSvvIo7rrhpJ1nTck+NTHiQwsJMgjwoDkjl4vcISMf3i0SXZE9c6Ew2W6VtOP9HsIjfBWiyV2PQVoErQMAJEcl9RVS26abowz2mUh6B3lrSOzR/J5wO58+DpF9wR57ESjnU7FPUV2jlpzAOeYBAJuEorXSsxMsvykg7myoS1EhTsqs+qh4Zws1lpIpXGDUOBMwLIXAkyAs9XlQiFz7DPjiqf23xGr8NZvYAx4rCOqhFVULZ03FoRdcGfxJppJ1yxcdstLQFUtJkNMdgiqwjTS8fUIYiUz6OPSyZw4S83DVFXlvcSUkKld5DvCIWF+ddRVIStCqt6Dsom2BeWc5WCiAAdpg9QEsgslPZGhuRYJRNeEEWbRW4DDK4txR4UVY6ixuE7g7J52pOOhMm9zo04xDmSOXPpUfQXHiGWk4DiB5pxj6pLFKdgryUTCU9HqJPS5jSUH+2RyLG2I7QFomlU+6L02f/YgVxughi8ebk+dTHOSrSMNBEftYPgd0LUeNrkQdMjQDrcqOPkCFYbbYge+/C3q36ueC4USZ55B5LOVeUoDsa/j4g4vNpM71+Nq+5TBX+J0jlFcmo8fJQuerauT1Sx0OAtE0jJdCE3Vh6OWz6izpF9lzwuVDTIbG/JEmxHiodmZQuFrME21vYkUDWzh5guKgr2RJNSDUCrAF19iUY2i8udzkBP6lYCc5G1CSQE6s9snAcekHkowkoXUPVEFpriCWiKtoqH6cbZ/OeV0lnaKbydTd3ntIclyek5ZOSoBwmdoYR73mYMD4gy5C0tHDpGrR4UViN15hO4EChXMaBJvIbyW+IhgUZq5NoClvVni8hXlMCHM1wRsAtO5S709Imi9JGUE29vAJamWvFTZb1y95K7aOW2dxcg01rt0oumVxVwpnzq/kwOKP9UnaJnYd0NkHjz5LgPLSrbaULySXkQomMSJixLal4mfwqyKe0mFUzSup3k/dnBwuyFpYsCONEgJDKMrJ7OhiMafsAi/jW//4XANCHYQm2V7xAVqG0nlsKrgUh9lImKnLrXoJR6qJHlV0EU3rcTfO4pHxcwEKsbJidZy8xPz8XGMmLxySdpteWIbgHIs+hEL1LE6RLy0iaJ0zjOXkqbCAxnPanXEdRRkx0vtil1uw3I2w/EaC1E/lZMwKd9XsZZ2VyPQQAzOPmhw+v+TdBqKPfIwLGvugnxCnrpWMyipKFO2wEIol0ab172RzD0qdsVHwCJJNX+EIAweWA8txnmqNghSDhxExYJkry0oJIyQqSYpZriEkNsj1p2NzNSRxWUb08WR7EUoIi4a82KX9aQ9MrqZQ6QwJ2pyPGwc4EOMLSCIsB1FkvxB9ZkW3ewx7VX8QlwkUQ4P8iIoz7qcNISKD4gEHYNGp6uUSDyGi52nNe/Z5YpQfeqrKpIlzZkpKn5dIWPLAapF6aUjq8iA+wLSFIbmRmFdzd1fj2CpWHgKJHiEAmd3NqCu/A7t91AAr5aVrVbAhnrw6TB9jPQ2CMGE0/LYLMZURannBlOfz0e/9Z9bVcJlwAAdrfJRDGreY65FLPq6mxl3MeVaKg3mglXXX6vf8nVUzRc6k1/H6J64AXnhbbexJOdd6sdt08wyIJmvQeab3jrJdq5Ao9LB8eh+QUd6qakoqXVSy60x4mtDU9VAK8qv3Goj8bYfcWdhxhaYBFj7Hr3T7AcBicKpuvYF+8kEuK154A1/Z/kyE77uy0IbqGWc7jkpwLlfqzjVaXl8i6zktViDJvmj/XiLJWj9JBHHpbDt2uKMbHOrg7J3lvEnnGJCjpRXR9FdcYvlg0/uNPWISvnKLg3yJb2RGy6yuRXyxz9mqPsbcYews7Wow0YDA97Go/WRLuO1ouUuq/thWWXkpchAf4AnX2w2SBcZf59sAiH5xlntcVzoP1V7HhxOmVb+zGqHgPgDzMFuSUWGn+rmhIDRm7OIHMtPRujYR0GZLLuobIgw3uok6vXHSEau5tTPwzwwRUJNwM4sEky1RjsYP98pcmBKwnepKCPimmZOOcx8mdHuPeYtyPGO2AkQaM2MGu93A7xmcPdHk+Xyz/5gHW41v/x1+E7eyvExGGjZ1IqlChKDia/w5/hLcskJsJVxq4hvA1W5mFA2JUREGwbm4t0XGRpGFLrFDOT/0oOVBXRiLBld/8ktPjdPCaohSgSBbzQWB7LRleBFje+vUI4u7AYOgtNvcG2N5i7EeMtseIPfpuB7vqp3Ru+B0zX1KQzQM8BLSyv0ZE6M9scS+TOw3OTXBDqompFM89nQI5lBosiZHnMysV8o89JeRWS46OnBHaLBKUrqtmmJaXyWx2js/j28JJUHBP6knQp02+iKYQnUiWrwUpMvtryC+Nm4w8e3Xx/izsOGCkHgN2GLoNqBvYXOaUITGPMDaEgJMHcGUXgoshwPX467azsD1h3NVtHxLXUKkwFs26UaUKJOjWSCBvRSAoyh5EYIYpyqz+RicJuUGinkKZCKQJQBm2hu/ky8lL7kyqM7RMJMFY36JHYNTkmWAgqE/SxnItKCEkNeKcEMi1lqTD4vBCxy/3GPc0zQHaiQB7s8Ww3gDdlJLPXU6p59+0Tp3d1/VdIC7KA/yAXY1/SHbyAgGlouoaUDURt4hyVCVjD5bX2iQQl0Q6ml0qV6tEYLJyh9iZPQ4wkVpNkYiEVSTNw+wT0wiZBY5LJJdYGTo+OhEq949iEWLmSGlz9SOwQ+U5Nbk/CFP1O4uzV2YPsJ/m/wbaozcbjOtdqCVYyYHzDCnM5V6lWZcOF0KA3/beT7O2G3+WLKE/nvYbFd8PJ52zsNo2X9Q5V5gpWPA7lcp7EHcfcCyRqK/cOotWrU7n5ERdIamU7TcHlVGcTYk0JeIkIZ2YnqVLwxdl5Dqd4jcyFEjEGBoaRlJ8XSXlObP4fYA/Pr7VY9jNix+DH/723Qa06r0RjuaWrT4LG/NCI4Bwt8bcy4gLIUAAsOvhp0czwvZ2mgvUBNUGRGKopihboZLISu8yVpOQAH8ErlylJYnEEsrGZpXnyKFkR7jnjrU8hayqyD0Il41K7nllT0eLzrh6aKSRU+3IKVo1ZnGHuGmSaHwch4lKcsHuhkRkRoR7L+2nub+9xWj72fvbol9tpidAAhsYK8ddgbfhTv6KLy8ujABpPT5rV8PzZAn7e6MuGE850RJ4wGusSufJi1L9zZYaHaknqSFmfs44GLJqjU0gCln9suJJrqILlbJyQ3XlhuUgUC7/tJhTzykmykOHwosDEqdJCMkdUuSxZDqBVDSCsvgmoZIMi3okfRKB8+DMjT+7O2B3PEzk1w8zAW6xN6cY15uMRa4XYIW01B36aM0lXEZcGAF++2/95cGuh5+0RBjOLMZtxguc4beLRDWhoqVnX2ggVaoc0SoEJnlrhOXLc6UuuxAXHMcrleeYD3XHZlEZxBUJtVJGPFbtosw1I7xZQpzWMQXEwDuWHKGIRBj1SkSJCrXPkAishvkyJBqocycZpQTc/egWw85i2FuM4zz3hy323em0/y8wLso89gT9eP0jFVdyKXFhBAgAdr3/4aHrLY2E3d1Rfqwt6tFllFdstScE8iqlVqTmqHoW5FKUSbDKG5gF1UvSCIml02xVzIr0+Rsi5RkfxzJx3v48erFBbG8QLH04SyDBpO6EJCjaz1VoZUSEYI6TgsPyfZR4RiPKTHJ/EieICpiA7dmI09vDvP1l8MNfbNCvToHOYiG3ODf+DMt0sQGTf7B0uZcVF0qA49X+/9hV/5vWWgynFsOu7AXKILWhRFJigNprZ/SlFbAG4ZMsWr41xObPi72DGCc91FbvvRktIjErUZxpowGxCnIiaUskqMiE90wgQoV4wkfaYsWMDNhq6XSaeojnQVwUvj5olSiyfU5z96O7afFjZzEOk/c30Ba77hTj0TbJyVkf7dQPsiXaE/CB81/dxeJCCfC73vt6jEe7fzeihx0J29uZucAihJoQBRVfECk2dL3xSnVPI9lKE12usYDuqSikGput2b54Moq9or6I0NQ8mY01pE6RoWonQwD3FiUvTSRBRwbkAykRkS4grzsAm5/NeIhxNvw3exwwqomkWF5R8H5jce+F/UR+s/fX0w57nGHfnfjnf0W6lijYPb38+//5vd/Q9gGeF8Pjm58ajrYv2HHEcGbRH49ZZqmpoA7xo7KHdsNsG0RZVjlmQeKeMuE48TSyjTGtsFVllBAXyUk0OzhxavnwDAQvUExGoUBMgiFxq4zrRKqmPiJPKiEbLYmkXyILt3PYv9klJrd4XpciFbItckWTiPbOH20xbPzWl8Hu0dMGO3OC/ugY8XeA0wwFOp4u5tnUiIcHF06A3/Obn3M2HO2+d0QPO1hs74yoeWU+gEim/EZkIN8gKDoXBSuISa6nvhHU4LDX5WdeEsGCy57LLJvh6TCMgqMoKCnPmmEtxYHC/UoJnr09JdN5BjocL7FGrXBqvOaWqBeJUDIi2mDv/ua4mOxi9ne/aWZ89B1jdzri+KXZ+9uNGMceA+2wpw225hjjehn+ShlP5wbw8+J8SEz0a6Urv8y4cAIEgOHq5gf2R5s71o6wO4vNy0PJeVFCKY2PhDPfWy9kWPHYGQ/PNgiSz4TGJwbEBCUwlqRT0kPBgW60qE/UlUt8CAnqhBxeHwlpU33qInzAe+SVR/zrgjL3NZkrFEks1sjPER2XZYrkS8CtD22c9zcMA3q7x5422OME/dG9efGDwS0AEvMMU1LE9CW4X8nkfulxKQjwe599y73+sdPvGcwO42DRn47YvTLkG68YZuRgLl7QKVZyU/Ex81ymLG76qXytV7bh5/Oue50W10kovSA1zjspq2KaqeHULLbEb50pr/h6JtDKSCWL2FaXQcrqAcEWKoUTW3hVled3SyKcVHGV10nA8a09Tl7u560vI8ZxWvjY0xm25h6Gow38YsdCePHFkfLmYfrtbm0e2i0wwCUhQADor5589+7K8QdH28P2hN2dEbvcBmkN8z3KEcDhc4HTf9rjUIeqyxJbRqwUnpXRSCuXPkfGQTAF5yJRFjJTiZ2LVZZboEYiqkzYTNGKsjB5QIYFcHvCHSQsNrNXNFhoLmU0/40D4db/m+f+diPGvkdvd9jbDXY4xnb9Kmg1wJEfq+MEMDJkNoYe4bt+5jfeUb74S4xLQ4Df/1ufe9Y/dvpP9+sTjGMP21tsbw3pUyJio4p60LiSRKPX/ONlEknQnK7iJYQZvT64pvtWdFA4BRPsnYsIq2KXhJcV8tNItOZYJDQWmB/Wsp94iCs4JyHp+rKVyDgI13odlyXbBRCwnqJLkYnlnTj5X5cnIRhG88uvIj6G23+0xe54cCu/g128v1NszF2MV06wkB9Fygwnv5n0DCe/ySN8d86khwGXhgABYPdxr/zM9vFXf643G4zD9LjO5uUB29vCcJgjaE1GeLQte5oEVr2YQYuLCUQjCmFjdBUJxWGHuLO8LQsEJPUu1Qsi0Sqvegs4aRdJUF5/F4k5JnumnCK54FQjLILbx6fkKpmg5lVCFckVM/U4eaXH3Y/sMGwn728Yegx2h53dYIt72K1fhV28v1gZXxE2UjwA0Adg8DuHmHsZcakI8If+51/H/urdr9k+9srze/IkuLsz4PSjPYZtOFmb3velJZASX0Da/iXtuaQHZvYA5gJZoPi25lrizolqtmTIPpnnC8itwPBRnHRd2haXIgkKeSYdVaIzev1ThngQR1FZ/mAoupbgfm/x0u9vMJyNk/fXT+S3txvs6Bib7i6GxfuL/4yUSUSKU/hP/Nff/JcP5beAOS4VAQLAv33fl76wu3r3q7ZXXhn2doOhnz7c0p+MOHu+x9kLPba3p6HxtLJFsCOBpqd4PCQiiBpozSSyx/QWFOn19cl5hhgWD0hsdCKxKQ1UzO8+vxPgMqL0GiIx0iK5nNJIE13RtUhkxU0rKQz1hR2iZnegX7ng6Sd6H4xLQ0lakacEzgnsyRW2oj8QIeClP9iEQ9+xR2+32NEJNriL7dEroNUIR2yG2GPvxMLhj+ccjSEYwAL04/GlPYxYX7QBEt75O1/8S//gM3/26zHiO6j/0zjqr2Jlj0BjBxoI6ABjzPTbATAGxkzHZmXmP6Cbf83KwHTz8fJrpuMEBLcly7DzpYpNLzcwgezhiJg42ZsT2qKdS9kH9mlZ8GvM6eQnwnFcRgSCoXAKIsg70JG/7kDNbGh6ZfI1yNc8l/m8oh/eW68LSlwssNQG41JoikJOWyY+xEU6jQSFMJFYAdz+4AbHL+4xbC2Geejb2y129hRbuofN6g7GK6dTAm2l0G364xeyFCiBgGdXR93vCVY+dLiUBAgA26u3v5Os/QR7OvxzO1zH0XAVq/EIXbea7oOZSA3GV3RjjKuLBv7YycyCxmAm0YUcPXF2qzCsW0iz87/E8uTQyEOs8GZ5TZYUV9DNAh1RMCYoElsOIvkIRHMA+cfl4m32LMX4SdbPDRAIRiPBZEo4VhHpWkRcnHSNvP9y+iUD2HFEhkK2sYmJChWz0N2P7nDnQzuMm+l536Hv0Y9b7O0ZdnSCM/MKdlfuBvv+XF6srQSE57xATt30w//lN76lxrJLj0tLgD/27FfhK9/4I/9ixO7KcLr72qv99e7IPo6VPYJBB2MMzMxixhEb+51vZEJ8ywEnsYVQ3bEQx8JNZ4Au9DA77l2uDLrOwKw9aXZzGk+cAvmxGNELKyFmgqglVRGbk138LR8pkaAnM4PJS6O5vWTYNyHuKThxuGICC+wK09L8X9IxSb0PCRkqRGjI9VcyaPaJ5ovxHqFghxClEVyW+BwP+aCT23u8/IcbDGd2fttzj2Gc5v22dIwzvILN+jbs0TYlPGcTu7FGCIYBDL0EmJ/ImfcwobZpXRj+9ut/EOvdx/3do82T3//Y/vq1I3sNHa1g0KHDypMgFiLs2DH7BRjJLXFTHsYfBCQZkCAE0lzSsjBjvLxhFWwybSbDhTg75nG6Ift83LGwbk7reT1A0DhZT51WYHcZwTm/RK5HkkvyS/JfflKSkZ7CMVFk8fqYkGqfoEPUExWGWF5SFjWtJlBdkUDrCStwfGuPF3/vDP2JxbAdMex67Icd9uMpNuOrOKaXcK97HptrLwIrmxCgG1FNzWeqZ8H5PAKanI1vedez3/aNdZZdflx6Alzwtz7jB9/Y7R/7D49tPv4zVuNj6GiNjtYwjgy7yTNEBzAP0XuLhoUvpMgJciY4Vis8aTKCnH9dBde8S2CuYMyzdGFw+THVOnEa+GF4NL+5kGbXAWY9/66Mj+9CAs0SYHJAoSenkqWkUyZgmSxTJQfnEecTp5fyTy4+mmXMEWFty0n7gQMS5zB1cvde2uPF/3uG/nR6qfCw69EPO+zHM2ztMU7tbdwzz+Pk8edB611SrzCTXVLXDCNCP8++Ncb8+Xc9+6+efwAXcCnw0BAgAPyNN3zTldXZE1+NfvWNZjx6XTdcwWq8go6OYGiFDuvJK6QVDFbzsSfG4M8R5DyUnn+ryJK5gcaR5UKEnmXCMEQEVyBOROeOKJkuE6Y3TC6o0AYA8zYD8lxPJNmtBUKN50CZt3sQQRXl6khQHIbmPFUhTNYTGyXbKEEdGlfJxgHixCeSxQhM0wN3PrzD7Q9upzeqzyu+fT8Pe8djnNlXcIwXcXLlIxiunsx1hrwtMfEZRIuKfOrHwBjzzne/79v/cf0VX348VAS44Ete/7VPgvBXYbtnMHZvMbb7LIyrJ814hM4ewdgjdPYKOrtGR0ezp7hGh/VMlCv/iy7yIlcBMQbk6IbXXUiMfBi+hDPPMvQyl6YukKkJfwFOOtHwfBFhhJiQJyNDp8uli8g1mgMF5sYARoDMu+zW4bEjTn7MCLTjXigzO7AvZEORwA4lQV4kQjIZsT4lvRh1SIua+czXAU548a+nQdsTXvyDDY5f6DFuGfkNu2nFdzzBmb2LE3oRx0fPY//4K37hg3eKy30PSHCuO27Ii2Wx8cwY86nvfvY7Hupnf2M8lAQY40ue+UfXyNpPt9a+BYRniPAmWHwKWdMZ6gC7grFrGLuCofV8vJ7JciLJ6XftyZJWMFh+2ZwjcZKcSBPUoTPz0Jsy3qUjvCXOk6BEnOE5gnMAwvEsmRCe8T+15OnOF1mmm6vlpMzk4yGWI9DI2+zWE0lOv3H4HLfMjS4r8ZzcwWxkJcXDgsOYHDMkKCYpEKFbMDlk8cpl6YmQUqcPAHByq8etD2yxuzdtcrbzt309+Z1ia1/FCb2Me+s/xu7xl4FVSH5h58e8PEZ6bs7ZxZvvfM/7vvPrDruiy49HggBjfMlb/2FH1r6OLL2JyL6VCG8G0WcS0RNTZTK+ghHmVUEDYycyM7SCsSuAZuKkNTq7grFH8/E6+DVYufnIwLukhShXniiF4XhAkFi8y5BIF1KMvU9w8nTkJcVHJMlla8lzPgiIjqXRyNCnD2UDmZhgWSN1xB14oSFRmtnz7CKvdIpj8m4faDhlkB3KuvKJwzNpePQDaGW7kxF3PrzDyUs9xh3NxDd92W0Y987z29p7OKXbOF59FJvHXwCthmRqJChT4ZxPd5jOwAB30JlPfc+z33Xr/q/kcuGRJEAJX/yWv/eEtfYzQPQWAp4B0ZtA9GeJ5qdhZkL0xBgVjeuFjSdN6qaNv1jN5LmavcyV8zIDorR+4cYv4Ky8l0mrcBhOoacZLPJopLkQH5vD9CSb8zA5SfJ4BPF+eGj8cUKgOkkaY7yXxEjReSRcX0KQuTSLScady3OicyN3K+2MLGMvdBnqd6E36of4COZHg/yYWfkAHWSBzb0Bd/94j7Nb/fTU054w9hZ2mL/rMU6e3348w5bu4ZRu4bh7AZvHXwQd7cVy9OVE4V7axeMLrsfAGPNP3vO+7/6BessfHvyJIcAYX/TM13QE++cAejMRPQPCWwD6dCJcA5DuWCXGgdn35oVxbrcfzUQwE+dEntMf3NDck2dHnkAD4lw8y8DLZHOYjDTFP5oJMxiKM4IUPM6YMH08XJhEmi5sIcHgGBGZ8vCQNINh+yLLG3VEuCpBgqeLiDKS1bzRIA33mLQtTl20Is/mRJfFpqXqLOqJgO3xiLPbA4athe1p+hsIdrCwwzh90tLu0dsNdvYMO3sPp7iNk+4FbK69AFr13v7AZnb5wvB3kZumGgwAPGuMeet73vc9Ax5B/IklwBhf+MxXg2CfBOizQPRmgN4K4I0EehrOS5SJL3z2NCrSiCDdVlkKoyTydOdkJk+TESdo5Ybq/ncdDtmD+cyZNNmxQef2VPJ5zXDl3CTHiInSeM+Tk2lKmD4sOAcQDOUDAoVruRJZ8kWkmERDYjT8p+Kc/+bi4G00SZKIeE0QHshFoJFgR4AsTceDBY0W4zhOn7O0s+c3P+J2hjs4Wb2I7eMvgtZ9aifLL5mfnfrCyOsDjDEDgM/5ufd/72/LVj78aASYwRc885VrEH0KwRHimwF8GghX1UQzAbr1u4KHGB8T05HKmehc0et0mJk8OXF2bH5z8SZDwlzItCPmYTrynMmS/EZ0HhZ6nNLwXBquhySK6DclTE6kcPGcJIPh+CQUxAdkGZAuwjhHYKx8S+Tp0i35hLcvSIN4zZfcUy1kCWQJdrSwdoS189fc7A49zeSHezjDLZyuX8T+8VvzSw5YXhH5cQJMvUBHfEsZvOPn3v+vvxmPMBoBHoAvfObvwNJ4HaDXz6T4V0D4SwA+BcB1JG/XkYhMKHKRwKTjmVzJN5hEFqaSIAU7Fzn32znP09AqWCCazqfjjpGmcXOcfqg+zXNykuTeph++w/2mXmdKmilhpkTJvVRGdo4gZdJ0w/UllhPpnM7TF9j5LBczXkC2CPUJt2XqOAlkLSxZWBphqcdgp48Z9bTBjk6wpVex6e7g7MoL6K/eBYxNPM+UAI1IgJHnBxj8KmA+7+ff/28eyaHvgkaADwCf/+a/eQWEmwBeB+Bpmn4/GcDT89/rADwNwnUA1xAQpckeBXLSo1HMczQQXrNVIscqGU+Q8SOtRKxxE//tFM+zi+Y7VxFprj1xzoQb79f0Hmi8mp4Zsgdzn+FQPSDRgDBlj5STZECWbJJNJM7l/2QsHd7xZdffRHwz+dF+Ij/M7/Qzr+BsdRu7x16GvbIB3PPICOiuNC0AAAXNSURBVH9NlF1EgMG8nzs2twDzhp9///d9OK4JjxoaAb5G+LzP+YoORFcA8ySAGwCewkSOTwH4pPmX/90A8ASANdyWZA6FzKJb6odWJlzIWXAQQRohrGQPwrnPJak4rDfzqroJiZM6wHaeGNnQHTbyNgPPcyHQac7UE2bmCSGahuOghQ7jbUqc+LqAKFOyXK6PDdcDGXb9cUskwohhIj/Mr7LH6fQtj+4utldeRn/1VaAb5gf4FgJciHd+M8Ty8ojA61OJDwC2gPniX3juBx7qr73VohHgJcTnvekrANAawDXAXCfQDQM8BZibBLppYD6JiG4aY24CeIoIN81MmARcNc7D1G6v4mEu0Ii1xns8tw4TngJsoUgYJ/JwNnQ3M3mKc5/LMN4ykrRrgTy7gEDFxSE3lDdCfESSIjmmHmRcOCN6DNhhwAZ7c4pt9yp2R3cwXHkVtN4nMxviIk1m+MuJb54DtQC+5heee+ePSnfvUUQjwEcAn/+mt8Oi60C4CoPr81D7KQA3578bmLzMGyzs5uSN0hOAuRLrlIbTbvhW4Xk6kPdBfZiSniK5QHZaHlg8p+wnJitIVgxfNsSTYcP4hVCX+U92LK3GB+Q5k29EnqBwqJ4ses0YsUffnaJfnaBfH2O8chx9xwMpAcaOJV+dTry/wPMDYN6BznzzL77vnVrhPnJoBPgnFJ/72V8OA6wBusaG5Tejv08E4SYMbsxznDcAPAmDJ0Da0HyBPL9V5ZUe4j0m8iYJy243SoQ0As7nEdpoQjJdzp1XupDrQqZTXLyoRWbEuN6Aut4FTlMJ8/B2EXSLMEs4/HB3iQ+8weU8WLB5hzHmm3/h/T8kXfAji0aADdV422d/GWZv8SqIniDghoG5CdBMjuYmgE+A9zqX3+uY5jOvQlkACmGUGM3LrI1ncgqZeq83R5JR/KHeqGJT8PGnZFtUnGD2iIPtOf43GPa642C4uwhZAF9vYL79F5/799qFPLJoBNjwMcVfe8PbYabHSa6aaY7yugnJ8QYm0lyOFzK9AdCTgLkG4ArED3jp1VejUN17E3RWEFvwBIeYpkJfQOCzRqKEjCkZ95vgBwi9Pk6EwUt/XRpzAuDvGzI/+Yu//SOKcY82GgE2XEq87Y1fDpoWgq4CeNIA12kmSOO9yk+cvFBHnsvfE5gWkK5ME3hSNc+RZz7evc9fJUio83pTXJqjvKczDSORZWMv0KTDX4ThBPP7BubLfum5H/1d3dBHH40AGx4pvO2NbwdNW4euTfObuD55kxM5zmT5CTNxXkdInE8iGarnmkiOKktNq+SJQoxPnyziKkMi5HsRmau6B8z3Aeabfvm5H7tXyP2RRyPAhgYAb/vst4MIaxCuwOAaZq8TbhuSuQ7QDcB8PLwHep0dL+R5BcnHxvIUKX3us5RWXeSZ0wgLT5aAXzUwX/fLz/34I/ts76FoBNjQcJ942xu+DPN+lysEPGEmMlxW1hdyvA7g4+GJ80lMpHp9XoV/EpPneRXq1xrl9XT/+JwofwaYdwPmuwzw7C8/9x/v72IfMTQCbGi4YLztjW8HpiH3FUyPSj4BT6JPsN/l+E9FYcuQfdqaRNQB+CBg3gWYX/lvz/3U3df0ghoaGhoaGhoaGhoaGhoaGhoaGhoaGhoaGhoaGhoaGhoaGhoaGhoaGhoaGhoaGhoaGhoaGhoaGhoaGhoaGhoaGhoaGhoaGhoaGhoaGhoaGhoaGhoaGhoaGhoaGhoaGhoaGhoaGhoaGhoaGhoaGhoaGhoaGhoaGhoaGhoaGhoaGhoaGhoaGhoaGhoaGhoaGhoaGhoaGhoaGhoaGhoaGhoaGhoaGhoaGhoaGhoaGhoaGhoaGhoaGhoaGhoaGhoaGhoaGhoaGhoaGhoaGhoaGhoaGhoaGhoaGhoaGhoaGhoaGhoaGhoaGhoaGhoaGhoaGhoaGhoaGhoaGhoaGhoaGhoaGhoaGhoaGhoaGhoaGhoeGfx/2J0gwaJn57MAAAAASUVORK5CYII=;" parent="1" vertex="1">
          <mxGeometry x="10" y="10" width="60" height="90" as="geometry" />
        </mxCell>
        <mxCell id="bcjcWRRCj_SL7PAw6Ldv-2" value="C++" style="text;align=center;verticalAlign=middle;resizable=0;points=[];autosize=1;strokeColor=none;fillColor=none;fontSize=12;fontStyle=1;textShadow=1;labelBorderColor=none;labelBackgroundColor=none;html=1;fontColor=#FFFFFF;rotation=4;" vertex="1" parent="1">
          <mxGeometry x="12" y="63" width="50" height="30" as="geometry" />
        </mxCell>
      </root>
    </mxGraphModel>
  </diagram>
</mxfile>
